<?xml version="1.0" encoding="UTF-8"?>
<svg width="330mm" height="293mm" version="1.1" viewBox="0 0 330 293" xmlns="http://www.w3.org/2000/svg" xmlns:cc="http://creativecommons.org/ns#" xmlns:dc="http://purl.org/dc/elements/1.1/" xmlns:rdf="http://www.w3.org/1999/02/22-rdf-syntax-ns#" xmlns:xlink="http://www.w3.org/1999/xlink">
 <metadata>
  <rdf:RDF>
   <cc:Work rdf:about="">
    <dc:format>image/svg+xml</dc:format>
    <dc:type rdf:resource="http://purl.org/dc/dcmitype/StillImage"/>
    <dc:title/>
   </cc:Work>
  </rdf:RDF>
 </metadata>
 <path transform="scale(.26458)" d="m620.23 8.5254a611.71 544.03 0 0 0-611.71 544.03 611.71 544.03 0 0 0 611.71 544.03 611.71 544.03 0 0 0 611.71-544.03 611.71 544.03 0 0 0-611.71-544.03zm2.4102 33.08a565.5 503.88 0 0 1 0.61914 0 565.5 503.88 0 0 1 565.5 503.88 565.5 503.88 0 0 1-565.5 503.88 565.5 503.88 0 0 1-565.5-503.88 565.5 503.88 0 0 1 564.88-503.88zm2.0723 18.557c-187.64 0.098343-319.17 151.62-319.17 151.62s315.23-249.9 649.38 16.406c-118.24-126.58-231.92-168.08-330.21-168.03zm-1.7656 95.775a425.14 375.65 0 0 0-424.89 375.65 425.14 375.65 0 0 0 425.14 375.65 425.14 375.65 0 0 0 425.14-375.65 425.14 375.65 0 0 0-425.14-375.65 425.14 375.65 0 0 0-0.25195 0zm-113.76 74.957 2.4316 0.47461c1.3333 0.26039 4.9187 0.97521 7.9375 1.582l5.5078 1.1074 2.8633 1.9395 1.2344-0.25196c1.0897-0.2226 1.5288-0.16888 3.7617 0.45703l2.5273 0.70899 6.5332 4.6894 1.4746 0.14063c0.8042 0.0769 2.3529 0.0927 3.4062 0.0352l1.9316-0.10546 3.1914 2.1699c3.9335 2.6718 10.917 8.1348 14.732 11.525 9.1986 8.1747 12.146 11.197 15.611 16.004 1.3328 1.8486 3.5208 4.8165 4.8477 6.5762 1.6417 2.1772 2.8208 3.9741 3.6719 5.5996 0.68456 1.3078 1.7265 3.0064 2.2969 3.7422 0.5715 0.73735 1.4951 2.213 2.041 3.2617 1.5643 3.0051 3.5568 5.9314 5.4023 7.9356 1.2668 1.3754 1.9925 2.3796 2.9316 4.0508 0.68769 1.2236 2.157 3.4156 3.2676 4.8789 1.8382 2.422 2.1469 2.7469 3.4902 3.6562 1.9543 1.3231 3.2442 1.812 3.8262 1.4531 0.24533-0.15076 0.80054-0.79642 1.2266-1.4258 0.77386-1.1433 0.77971-1.1644 0.65234-3.0137-0.0924-1.3426-0.29161-2.167-0.71484-2.957-0.91238-1.704-2.7118-6.162-3.4824-8.627-0.62593-2.0013-0.67348-2.405-0.47657-4.0781 0.12019-1.0187 0.23306-3.0778 0.25196-4.5625 0.04-3.1711 0.71686-6.4228 2.5586-12.301 1.7718-5.6548 3.5434-9.2907 7.0527-14.475 2.4666-3.6436 2.8614-4.1478 4.7461-6.0488l2.0566-2.0742 0.95117 0.041c0.51874 0.0219 2.1002 0.0374 3.4785 0.0352 1.5474-3e-3 3.3056 0.17105 4.5371 0.44922 1.7273 0.39046 6.5213 2.1755 9.0664 3.375 0.50687 0.23911 1.4253 0.39359 2.3867 0.40039 2.0628 0.0147 4.0553 0.57257 7.3066 2.0488 1.469 0.66694 3.9926 1.7732 5.5879 2.4492 2.5518 1.0826 3.1143 1.3869 4.5859 2.5 0.92353 0.6982 3.8712 2.8619 6.5586 4.8144 4.7599 3.4578 4.9477 3.6155 7.5547 6.3223 1.475 1.5316 3.8031 3.7625 5.1934 4.9766 1.3811 1.2065 3.4482 3.1517 4.5742 4.3047 1.9323 1.9784 2.213 2.3676 4.7402 6.5547 2.5272 4.1871 2.7868 4.5445 4.373 6.0273 0.97032 0.90708 2.462 2.587 3.5137 3.959l1.8281 2.3848 1.0664 3.3301c0.58946 1.8407 1.4243 4.5575 1.8672 6.0723 0.43971 1.5036 1.2749 3.8616 1.8496 5.2246 0.85285 2.0225 1.0949 2.9177 1.3027 4.8184 0.223 2.0376 0.18371 2.6476-0.29882 4.8086-0.48265 2.1609-0.51653 2.7448-0.27539 4.584 0.17648 1.3518 0.17959 2.4785 8e-3 3.1445l-0.26953 1.0391 2.6426 2.127 0.51563 1.9668c0.50717 1.9344 0.54287 1.9988 2.1465 3.8398 2.5276 2.9021 3.4962 3.7409 5.3594 4.6426l1.5996 0.77344 2.0332-0.77344c1.9643-0.74727 2.0563-0.80672 2.7227-1.791 0.50566-0.74695 0.84091-1.5937 1.2539-3.1738 0.58262-2.2351 0.73687-4.598 0.58985-9.1172-0.0575-1.7728 0.0653-2.7556 0.67187-5.3398 0.71656-3.0524 0.80174-3.2739 2.3262-6.082 3.1944-5.8839 6.2626-9.8404 12.047-15.537 1.555-1.5315 3.6026-3.6552 4.5664-4.7344 1.6398-1.8365 1.8494-2.0068 3.3984-2.7715 1.0349-0.51087 2.5902-1.0124 4.1699-1.3438 2.1052-0.44149 3.0801-0.49961 5.9316-0.35938 5.5394 0.27264 9.1632 0.84314 12.57 1.9805 2.0444 0.68261 4.1875 1.1994 6.9551 1.6777 3.756 0.64913 4.2477 0.7888 8.0664 2.2832 4.5824 1.7934 4.0104 1.3611 6.6719 5.0234l1.625 2.2363 1.7461 0.88086c1.582 0.79762 1.9397 1.0593 3.793 2.7812 2.2538 2.094 4.5014 3.9457 12.607 10.381l5.4199 4.3027 1.9082 2.3535c1.0536 1.3002 3.1489 3.7357 4.6777 5.4375 1.5838 1.7632 3.8 4.5174 5.1797 6.4394 1.3299 1.8528 3.4238 4.6627 4.6699 6.2656l2.2598 2.9062 2.9902 6.4453c2.731 5.8839 3.0654 6.7386 3.8379 9.832 1.1975 4.7955 3.3775 11.268 5.0234 14.916 0.83278 1.8463 1.8828 4.7447 2.6191 7.2246 0.67756 2.2814 1.794 5.5251 2.4863 7.2246 0.68957 1.6928 1.6408 4.6126 2.1074 6.4688 1.0859 4.3218 2.8849 10.26 4.5176 14.912 1.2203 3.4775 1.3564 3.7512 3.0137 6.0723 0.95875 1.3426 2.9914 3.9299 4.541 5.7793 1.5495 1.8495 3.6445 4.581 4.6816 6.1035 1.035 1.5194 3.1073 4.2223 4.6172 6.0234 2.0712 2.4703 3.1711 3.9802 4.5059 6.1894 1.3191 2.1832 2.3718 3.633 4.1641 5.7305l2.3984 2.8066 3.3457 2.2637c2.4512 1.6593 4.0873 2.9097 6.1211 4.6758l2.7754 2.4102 5.9394 3.248c10.276 5.6193 11.536 6.415 20.553 12.99l7.9707 5.8125 9.4512 9.5859 5.8438 3.6777c3.2177 2.0254 6.4482 4.0886 7.1914 4.5918 1.0812 0.73194 2.0978 1.1826 5.1094 2.2637 2.0631 0.74067 5.4276 2.0251 7.4551 2.8477 2.7854 1.13 4.637 1.7326 7.5215 2.4473 2.9369 0.72767 4.1499 1.1246 5.2188 1.709l1.3926 0.76172-0.77539 0.90039c-1.7342 2.0141-6.1317 6.1562-8.1914 7.7148-1.2042 0.91166-4.2078 2.8994-6.6738 4.418-7.2486 4.4638-7.848 4.8768-9.5449 6.5801-2.026 2.0339-4.961 4.4906-5.1836 4.3398-0.0993-0.0673-0.33874-0.87106-0.52734-1.7695-0.18917-0.90044-0.68347-2.362-1.0898-3.2246-0.68304-1.4499-0.95906-1.7962-3.3984-4.2578-3.1788-3.2079-7.3742-6.6233-11.912-9.6953-1.9985-1.3529-4.7657-3.4488-7.582-5.7461-8.3042-6.7733-13.723-10.626-31.633-22.486-15.309-10.138-16.206-10.707-18.404-11.701l-2.3106-1.0469-2.8457 0.51367c-1.5712 0.28278-4.2397 0.92245-5.9551 1.4277-1.7032 0.50181-5.6356 1.3858-8.7031 1.957-3.7307 0.69457-6.5433 1.3652-8.4395 2.0137-1.5673 0.53593-5.5336 1.8098-8.834 2.8359-13.471 4.1885-19.853 6.3226-25.385 8.4902-5.6595 2.2173-29.957 10.393-40.203 13.527-7.1261 2.1799-15.756 4.3094-20.664 5.0977-2.3033 0.36998-5.8844 1.0597-7.9922 1.5391-5.1531 1.1723-10.242 1.599-17.059 1.4297-12.446-0.30905-17.637-1.0084-27.668-3.7266-3.7973-1.0291-5.3272-1.5654-9.9277-3.4746l-5.4394-2.2578-3.8359-2.5957c-2.9494-1.9966-4.7595-3.3678-7.8477-5.9414l-4.0156-3.3457-1.6309-3.4941c-1.5373-3.2946-1.6677-3.6964-2.2715-7.0078-0.63761-3.4952-0.63744-3.5362-0.20899-7.9316 0.3888-3.9876 0.52568-4.7066 1.4082-7.3789 0.87814-2.6585 1.1564-3.2629 2.7344-5.9141l1.7578-2.9512 1.5547-1.3145c2.0781-1.7571 4.154-2.8935 6.3926-3.498 2.3554-0.63636 14.572-2.2663 20.598-2.748 8.7325-0.69804 11.143-1.2223 15.283-3.3223 3.1613-1.6035 4.033-3.062 3.9453-6.6016-0.0339-1.3694-0.0406-1.3837-1.4551-3.2188-1.3019-1.6892-1.5783-1.9512-3.3008-3.1172-1.771-1.1989-2.0218-1.3108-4.3535-1.9336-2.0045-0.53537-3.0199-0.66274-5.3359-0.68164-7.882-0.0589-15.522 1.0455-22.127 3.1992-4.5652 1.4884-7.9255 3.307-14.078 7.6191-3.2954 2.3096-4.9968 3.348-7.9727 4.8672-2.1816 1.1138-5.2263 2.8866-7.1934 4.1875-1.8769 1.2412-5.0694 3.1746-7.0996 4.2988-3.5659 1.9744-3.8624 2.095-8.8379 3.6055-6.8228 2.0712-14.47 3.4208-19.547 3.4473-11.999 0.0653-19.657-1.142-28.371-4.4707l-4.0293-1.5391-2.9902-2.0234c-2.534-1.7154-3.3786-2.3955-5.5527-4.4609-2.2782-2.1645-2.7601-2.7275-4.3008-5.0469-0.95683-1.4407-2.3108-3.5986-3.0215-4.8125l-1.2891-2.1992-0.93164-5.4375c-0.87591-5.1093-0.91944-5.6246-0.71875-8.5527 0.11766-1.7173 0.53302-5.34 0.92383-8.0703 0.66818-4.6679 0.75978-5.0598 1.5898-6.7734 0.48616-0.99923 1.2483-2.2765 1.6973-2.8359 1.0774-1.3424 4.773-4.5691 6.6523-5.8086 2.6024-1.7161 7.1579-4.1782 9.6406-5.2109 2.3422-0.97447 2.3996-1.0139 3.1094-2.0625 0.59444-0.87779 0.72682-1.2388 0.73438-2.0273 0.01-0.95959 9e-3 -0.96016-1.0508-1.6777-1.048-0.70938-1.0853-0.71633-3.291-0.59765l-2.2305 0.12109-5.5644 3.3574c-8.0352 4.8492-11.211 7.1304-14.541 10.445-3.8846 3.8671-7.071 6.425-10.773 8.6465l-3.1211 1.873-4.627 1.0195c-3.2018 0.70768-5.6999 1.0967-8.1035 1.2656-1.9133 0.1344-5.4542 0.40705-7.8828 0.60547-2.7969 0.22828-6.2756 0.29679-9.5117 0.18945l-5.1035-0.16992-3.916-1.2246c-2.1522-0.67381-5.5836-1.8709-7.6191-2.6582l-3.7031-1.4336-8.2812-5.6055-2.5527-3.0449c-5.4113-6.4557-5.9418-7.2175-7.4727-10.723-1.2787-2.9275-1.4376-3.4777-1.9473-6.7285-0.64502-4.1148-0.98834-9.3874-0.93164-14.324l0.041-3.4746 1.6524-4.0742c1.9525-4.8128 2.8807-6.8544 4.0293-8.8652l0.85547-1.498 1.6035-0.19141c0.88641-0.1081 2.6716-0.0947 3.9883 0.0293 1.521 0.14362 3.0069 0.11826 4.1055-0.0703 1.6562-0.28444 1.7875-0.34811 3.4297-1.6758 0.9755-0.78871 1.9532-1.745 2.2832-2.2324 0.51768-0.76464 0.56386-1.0089 0.4414-2.3477-0.13107-1.4349-0.17736-1.538-1.209-2.6543l-1.0742-1.1602-1.832-0.43164c-1.5682-0.36918-2.1792-0.38683-4.2266-0.10937-1.318 0.17842-3.6182 0.62009-5.1191 0.98046-2.3174 0.55661-3.0106 0.82641-4.6328 1.8125-1.5625 0.94954-2.2601 1.5278-3.8457 3.1836l-1.9356 2.0215-1.0039 2.3398-1.0039 2.3379-1.7227 1.9023c-1.5863 1.7519-1.906 2.0084-4.0586 3.2656-1.9728 1.1521-2.7683 1.4785-5.1094 2.0957-4.6471 1.2256-7.9909 1.6346-11.523 1.4082-1.713-0.10998-4.2519-0.24201-5.6699-0.29492-2.4317-0.0908-2.7215-0.15335-5.4844-1.1738-4.1926-1.5485-6.925-3.0749-10.234-5.7188-2.2729-1.8157-2.8706-2.3978-4.5371-4.4277-1.0557-1.2858-3.0317-3.5838-4.3926-5.1055-5.0721-5.6723-6.8742-8.6001-9.7168-15.793-1.3537-3.4253-2.1884-7.4038-2.8848-13.744l-0.39649-3.6016 0.72461-3.3496c1.049-4.8448 2.0495-8.4306 3.1094-11.154v-2e-3c1.3442-3.454 2.7169-5.4546 6.5098-9.4805 2.5423-2.6987 3.2229-3.3088 5.2852-4.7539 1.3087-0.91702 3.8985-2.4569 5.7949-3.4434s4.8408-2.643 6.5859-3.7051c3.6908-2.2463 4.8843-2.6585 11.596-4.0098l4.3457-0.875 14.234 0.0957 5.9746 2.1621 8.877 6.1524 2.3516 0.80859c2.1362 0.73335 2.5366 0.79808 4.3711 0.71289 1.3216-0.0615 2.4385-0.26746 3.2285-0.59375l1.207-0.49805-0.38476-1.8418c-0.21014-1.0094-0.36655-2.4862-0.34766-3.2676 0.0307-1.2494-0.11082-1.7616-1.1465-4.1562-0.88498-2.0463-1.5492-3.2294-2.6445-4.7109-2.83-3.8276-4.6572-7.8516-7.4082-16.311-0.90134-2.7715-0.98818-3.2409-0.79882-4.3184 0.50029-2.8481 4.8828-9.5677 10.162-15.582l2.8574-3.2578 3.0859-1.7383c1.6935-0.95471 3.8964-2.0845 4.8828-2.5039zm9.6289 24.059c-0.20752-0.0175-0.33492 0.13927-0.61328 0.6211l-0.41992 0.72851 3.043 4.0664c2.5502 3.4054 4.0058 5.107 8.9609 10.488 6.9318 7.5275 10.598 12.023 12.936 15.855 4.5475 7.455 7.1146 11.181 12.303 17.859 8.6468 11.13 14.627 19.389 17.664 24.389 0.70235 1.1566 1.453 2.0311 3.2402 3.7793 1.2786 1.2508 2.6432 2.669 3.0332 3.1524l0.70899 0.8789-2.3789-0.19726c-1.7222-0.1428-4.0262-0.61687-8.3535-1.7168-9.9734-2.535-28.31-7.0819-31.744-7.8711-3.3885-0.77884-18.774-3.555-24.428-4.4082-5.9383-0.89641-12.877-2.2869-16.482-3.3027-1.9472-0.54848-4.7855-1.1879-6.2871-1.416-1.502-0.22826-4.3536-0.75817-6.3184-1.1738-2.2816-0.48278-4.8441-0.83732-7.0644-0.97852-1.9219-0.12218-4.9935-0.39512-6.8477-0.60742-3.8105-0.43646-9.2928-0.2778-11.418 0.33008-0.71656 0.20541-2.6372 0.55902-4.2637 0.78515-2.5062 0.34856-3.1128 0.51486-3.9668 1.082v2e-3c-1.1884 0.78931-1.1186 0.70276-0.8457 1.0332 1.4121 1.71 5.1556 3.6944 10.541 5.5859 4.6703 1.6403 10.723 2.855 21.689 4.3516 7.7825 1.0622 8.2331 1.1505 12.664 2.4844 6.922 2.0834 12.724 3.3981 17.441 3.9531 2.6033 0.30622 5.631 0.85177 8.3965 1.5117 2.3704 0.56565 5.7287 1.2166 7.4297 1.4414 3.6203 0.47855 14.652 3.1165 20.58 4.9199 2.2073 0.67167 8.2083 2.2151 13.369 3.4394l9.3652 2.2207 3.7402 1.6289c2.0524 0.89261 5.2251 2.085 7.0273 2.6426 1.8069 0.55899 4.8592 1.5787 6.7852 2.2656 5.7776 2.0613 11.413 3.7838 13.348 4.0801 1.1458 0.17552 2.7341 0.6369 4.3008 1.248 1.3757 0.53665 2.4866 0.9932 2.4941 1.0234 6e-3 0.0298-0.90617 0.0196-2.0352-0.0254-1.1234-0.0446-3.5071 0.0235-5.2852 0.15234-3.0878 0.22409-3.4237 0.30365-7.2363 1.6836-3.2779 1.1864-4.6884 1.5597-7.8184 2.0742-3.6537 0.60038-4.1392 0.74646-11.309 3.4043-8.3221 3.0851-14.045 5.6089-18.967 8.3652-3.124 1.7495-3.4317 1.8727-7.3535 2.9316-2.2396 0.60465-5.9167 1.6715-8.1172 2.3555-3.4232 1.0639-4.4415 1.4889-6.8398 2.8457-2.585 1.4621-3.0337 1.6372-5.416 2.1289-2.1596 0.44599-2.8325 0.68985-3.998 1.4473l-1.4004 0.91211-0.42382 1.8379c-0.47059 2.0484-0.47018 2.0483 1.4258 2.4941 3.3207 0.78126 18.87-2.568 26.584-5.7266 1.6072-0.65813 4.8235-1.6987 7.1094-2.3008 2.8933-0.76202 5.2671-1.5662 7.7402-2.6211 6.0405-2.5767 12.262-4.8485 15.922-5.8144 1.9254-0.50816 5.3046-1.4802 7.5352-2.168 3.6277-1.1192 4.4218-1.2774 7.7051-1.5352 2.0187-0.15874 5.7001-0.66169 8.209-1.1211 3.3084-0.60578 5.5604-0.86708 8.2558-0.95703 2.0508-0.0682 5.4046-0.24947 7.5098-0.40821 2.1008-0.15798 6.2653-0.24715 9.2988-0.19726 8.9521 0.14736 13.056 0.9784 28.062 5.6758 5.0819 1.5907 9.8255 3.2152 12.547 4.2988 4.1974 1.6713 4.6283 1.7977 10.59 3.0879l6.2148 1.3457 4.1406 1.9082c8.982 4.1422 10.02 4.6816 13.381 6.957 2.9645 2.0069 7.7393 4.6294 10.969 6.0234 0.82262 0.35494 0.88675 0.42506 1.0039 1.1035 0.0698 0.4103 0.10234 0.76173 0.0684 0.80859-0.14574 0.21551-4.8968 0.45532-8.002 0.4043-8.3838-0.13803-13.868 0.56011-21.26 2.707-2.5466 0.73954-5.9322 1.6445-7.5449 2.0176-4.4145 1.0207-11.091 2.9745-14.32 4.1914-1.5867 0.59784-4.2231 1.5613-5.9102 2.1582-4.9903 1.7661-11.418 4.3496-14.773 5.9394-4.2814 2.0286-9.6405 4.1909-13.902 5.6094-1.9372 0.64494-5.0713 1.7286-6.9219 2.3926-1.8654 0.66928-4.449 1.4639-5.7637 1.7734-4.027 0.94715-5.8391 1.7229-8.8945 3.8086-2.3983 1.6369-2.8341 2.0106-3.7012 3.1816l-0.98242 1.3281 1.4824 1.002c1.3746 0.93057 1.6195 1.0264 3.373 1.3144 2.2588 0.3713 7.5827 0.28715 13.574-0.21485 3.9174-0.32817 4.5267-0.44316 6.834-1.3008 1.4031-0.5215 3.9252-1.4009 5.6523-1.9707 7.9636-2.6273 18.757-6.5945 22.777-8.3711 6.657-2.9416 13.357-5.424 21.396-7.9277 11.876-3.6984 13.64-4.2992 16.803-5.7246 2.271-1.0232 3.973-1.5973 7.0156-2.3633 2.2104-0.55653 5.2272-1.3883 6.7051-1.8496 7.2283-2.2556 14.079-3.4396 20.193-3.4902 4.0908-0.034 4.1218-0.0243 9.3008 2.957 2.9873 1.7197 4.0003 2.1908 8.5449 3.9688 2.8394 1.1108 7.7369 3.1789 10.902 4.6035 5.3684 2.4162 6.0755 2.6812 10.695 4.0039l4.9453 1.416 4.5723 2.3457c2.5106 1.2883 7.3742 3.5902 10.791 5.1074 3.4169 1.5171 8.7439 3.9806 11.818 5.4648 3.0762 1.4852 6.6236 3.1789 7.875 3.7617 4.2783 1.993 11.934 5.9374 15.059 7.7578 1.9576 1.1404 4.4131 2.7572 6.5996 4.3438l3.4824 2.5254 2.3418 0.64453c1.283 0.3524 3.3625 0.83106 4.5977 1.0586 2.1904 0.40347 2.3424 0.46347 5.334 2.1094 3.2157 1.769 7.4205 3.7737 16.16 7.7031 4.9068 2.206 5.4294 2.4848 9.7676 5.1934l4.584 2.8613 3.7949 1.082c3.5419 1.0115 3.9017 1.0743 5.3809 0.90234 1.0712-0.12347 2.0656-0.42504 3.0684-0.92968l1.4844-0.74805 0.0449-0.88672c0.0575-1.1203 0.0565-1.1196-1.2051-2.3242-1.4252-1.3607-5.8798-4.0154-11.686-6.9629-2.6615-1.3511-6.2493-3.3606-9.3672-5.248-4.1116-2.4888-5.9562-3.4914-9.8906-5.3711-5.949-2.8427-11.905-6.1255-13.631-7.5137-1.278-1.0277-2.2407-2.3977-6.8926-9.7969-0.6513-1.0357-1.718-2.5754-2.3945-3.4551-0.80322-1.0446-1.768-2.7206-2.8242-4.9062-0.88513-1.8314-2.7944-5.3641-4.2559-7.8789-2.5772-4.4344-2.6766-4.6536-3.6699-7.9922-0.99715-3.3515-1.0892-3.5471-3.8555-8.3086-2.7216-4.6847-2.8852-5.0378-4.1894-8.9375-2.6222-7.8409-5.8376-15.496-9.293-22.129l-1.7324-3.3262-3.084-3.2949c-2.4072-2.5724-3.7963-4.2728-6.3398-7.7578-1.7918-2.455-4.5338-6.1106-6.0938-8.123l-2.8379-3.6582-3.9199-3.041c-3.7692-2.9232-3.9755-3.061-5.3828-3.5723-1.008-0.3662-1.5882-0.46553-1.8652-0.32032-0.5032 0.2641-1.3937 1.8573-1.8223 3.2578-0.32984 1.0777-0.31816 1.1444 0.5918 3.1894 1.2788 2.8745 3.4505 6.3189 6.5332 10.363 2.5678 3.3686 2.672 3.5447 6.5215 11.059 2.445 4.7723 4.3347 8.7521 5.0371 10.613 1.1278 2.9877 3.4141 7.7982 6.5762 13.83 1.3596 2.5939 1.8331 3.7626 2.4434 6.0254 0.67454 2.5021 0.96643 3.1751 2.6856 6.2012 1.0579 1.8622 2.4416 4.5695 3.0644 5.998 0.62268 1.4282 1.85 4.0438 2.7188 5.793 1.9625 3.951 3.8245 9.8719 3.5645 11.334l-0.16016 0.90626-1.9766 0.20703-4.7774-3.3438c-4.1917-2.9331-5.4429-3.7133-10.209-6.377-10.671-5.964-18.06-9.7771-22.643-11.684-5.0693-2.1087-10.68-4.9469-13.35-6.7539-1.3581-0.9194-2.3598-1.7534-3.3516-2.7891l-1.416-1.4785-1.8047 0.24024c-1.6425 0.21804-1.9494 0.18548-3.4121-0.36524l-1.6055-0.60546-3.9082-5.1094-2.291-0.48633c-2.2004-0.4687-2.4123-0.46919-5.3867 0l-3.0957 0.48828-8.9785-5.7168-2.8516-3.0645c-2.4183-2.5998-3.0115-3.3511-3.8984-4.9453-1.2579-2.261-3.1252-4.3017-5.2617-5.748-0.89249-0.60421-2.3767-1.8934-3.9004-3.3887l-2.4609-2.4141-2.4668-4.4004c-1.3546-2.4152-3.6596-6.4221-5.1094-8.8828-3.9896-6.7718-9.8012-17.383-11.826-21.596-2.3468-4.8816-2.1849-4.6078-4.5762-7.7617-2.9007-3.8258-6.9408-8.7272-12.572-15.25-5.3879-6.2404-6.8539-7.6083-10.582-9.877-2.3434-1.426-4.3836-2.1368-6.4082-2.2344-0.67831-0.0325-1.2516-0.052-1.2988-0.043-0.0465 9e-3 -0.13862 0.46205-0.20703 1.0195-0.25977 2.1169 1.9782 7.7807 5.1445 13.021 0.71758 1.1876 1.6963 3.0901 2.1641 4.207 0.46885 1.1198 1.602 3.3034 2.5156 4.8438 1.4546 2.4522 1.9734 3.1351 4.1152 5.4297 1.9381 2.0762 3.0208 3.4566 5.1856 6.6094 3.3687 4.9062 5.2854 7.3874 8.2363 10.666 1.251 1.3898 3.3367 3.8454 4.6367 5.457 2.4424 3.0281 3.2354 4.4044 4.8887 8.4785 1.7561 4.3273 3.7637 8.3299 5.5801 11.129l1.9141 2.9512 4e-3 1.5976c5e-3 1.9158-0.34077 2.5473-1.8828 3.4356l-1.041 0.59961-5.5078-1.8887c-6.3314-2.1709-9.1965-3.277-14.154-5.457-1.9543-0.85928-4.7152-1.9679-6.1328-2.4629-2.2464-0.78456-2.8287-1.0671-4.5098-2.2051-1.7746-1.2013-2.1486-1.3759-4.6582-2.1641-1.4937-0.46919-3.9966-1.0814-5.5312-1.3535-2.7171-0.48166-2.8741-0.53563-5.0859-1.7637-6.6706-3.7035-11.003-5.4516-14.135-5.6992-2.4121-0.19077-5.4512-1.189-8.2988-2.7266-1.1186-0.6041-3.5037-1.8159-5.3008-2.6934-3.0448-1.4874-3.5437-1.7931-7.3398-4.498-8.081-5.7585-16.545-12.442-22.742-17.959-8.183-7.2848-14.235-13.073-18.693-17.875-8.9949-9.6886-10.703-11.374-17.883-17.645-7.4981-6.5482-8.9877-8.0621-12.162-12.357-1.0773-1.4582-2.9611-3.7972-4.1992-5.2148-1.2382-1.4176-2.8635-3.487-3.625-4.6152l-1.3809-2.0449-4.7871-3.2402c-4.1901-2.8366-8.0935-5.2195-9.4844-5.7891-0.0955-0.039-0.17497-0.0645-0.24414-0.0703zm297.6 202.71c-0.3077-6e-3 -0.63793-4e-3 -1.002 6e-3 -0.48536 0.0135-1.0312 0.042-1.6621 0.082-3.9462 0.25047-6.7052 0.94819-13.125 3.3164-2.6788 0.98812-6.29 2.1193-8.5977 2.6934-3.3683 0.83781-4.6478 1.2848-8.3418 2.9141-3.6425 1.6064-16.748 6.5841-21.689 8.2383-3.6047 1.2067-15.773 4.6167-19.73 5.5293-2.552 0.58882-7.2619 1.4066-11.064 1.9219-7.1798 0.97319-10.222 1.7526-14.941 3.8281-1.8818 0.82734-2.3772 1.1322-2.7637 1.7031-0.25795 0.38097-0.43207 0.72172-0.38672 0.75195 0.64279 0.4351 10.866 3.321 12.287 3.4688 0.2606 0.0272 3.8722-0.0123 8.0293-0.0879l7.5566-0.13672 4.1738-1.1367c2.3049-0.62687 7.0171-1.6975 10.521-2.3926 6.0706-1.2038 6.5303-1.333 10.604-2.9648 2.3496-0.94129 7.2105-2.8498 10.842-4.2559 9.3282-3.6116 18.897-7.9381 24.812-11.219 1.51-0.83743 4.0763-2.0873 5.7031-2.7793 4.0975-1.7425 10.177-5.4313 11.908-7.2266 0.67654-0.70129 1.228-1.3498 1.2129-1.4258-0.0148-0.0769-0.85862-0.31922-1.8906-0.54297-0.81264-0.17645-1.532-0.26744-2.4551-0.28515zm-520.38 66.205c0.10104 0.0646 0.36376 0.86276 0.57617 1.7559 0.21305 0.89511 0.74465 2.3438 1.1738 3.1953 0.72137 1.4312 1.0057 1.7682 3.5098 4.1641 3.263 3.1222 7.5499 6.4248 12.168 9.375 2.0338 1.2992 4.854 3.3214 7.7305 5.543 8.4815 6.55 14.002 10.257 32.221 21.637 15.573 9.7268 16.483 10.271 18.707 11.207l2.3398 0.98437 2.832-0.58789c1.5631-0.32447 4.2108-1.0352 5.9121-1.5859 1.6893-0.54693 5.5972-1.5348 8.6484-2.1875 3.7109-0.79355 6.5065-1.5395 8.3848-2.2383 1.5525-0.57743 5.484-1.9567 8.7559-3.0703 13.355-4.5454 19.676-6.8481 25.148-9.1621 5.5986-2.3671 29.669-11.186 39.828-14.592 7.0656-2.3687 15.637-4.7279 20.521-5.6465 2.2927-0.43113 5.8549-1.2147 7.9492-1.75 5.12-1.309 10.195-1.8715 17.014-1.8828 12.45-0.0222 17.659 0.53786 27.758 2.9883 3.8233 0.92765 5.3679 1.4228 10.018 3.209l5.498 2.1113 3.9023 2.4941c3.0014 1.9175 4.8484 3.238 8.0039 5.7285l4.1016 3.2383 1.7226 3.4512c1.6244 3.2526 1.7673 3.6511 2.459 6.9453 0.73024 3.477 0.73135 3.5166 0.41992 7.9219-0.28256 3.9965-0.39985 4.7193-1.2109 7.4141-0.80708 2.6809-1.0713 3.2922-2.5781 5.9844l-1.6777 2.998-1.5195 1.3555c-2.0306 1.8118-4.0752 3.0021-6.2969 3.666-2.3377 0.69879-14.507 2.653-20.518 3.2949-8.7109 0.93014-11.104 1.5172-15.188 3.7266-3.1175 1.687-3.9513 3.171-3.7695 6.707 0.0703 1.368 0.0782 1.381 1.541 3.1777 1.3464 1.654 1.628 1.9076 3.3809 3.0273 1.8022 1.1513 2.0569 1.2559 4.4043 1.8164 2.018 0.48181 3.0358 0.58372 5.3516 0.54101 7.8808-0.15084 15.489-1.4584 22.035-3.7871 4.524-1.6094 7.8334-3.5159 13.869-7.9902 3.2328-2.3964 4.9055-3.4803 7.8398-5.0781 2.1512-1.1715 5.1484-3.0241 7.0801-4.377 1.8432-1.2908 4.9848-3.3086 6.9844-4.4863 3.512-2.0686 3.8048-2.1975 8.7383-3.8398 6.7654-2.252 14.373-3.8035 19.447-3.9648 11.993-0.38457 19.681 0.61719 28.48 3.7129l4.0684 1.4316 3.043 1.9434c2.5787 1.6474 3.4416 2.3036 5.6699 4.3105 2.335 2.103 2.8318 2.6541 4.4336 4.9316 0.99489 1.4147 2.4057 3.536 3.1484 4.7305l1.3457 2.1641 1.0762 5.4102c1.0117 5.0842 1.0701 5.5989 0.94726 8.5312-0.0718 1.7198-0.39112 5.3521-0.70898 8.0918-0.54376 4.684-0.62403 5.0774-1.4082 6.8125-0.45941 1.0118-1.1871 2.3097-1.6211 2.8809-1.0412 1.3706-4.6504 4.6953-6.4961 5.9844-2.5558 1.7848-7.0456 4.3684-9.5 5.4668-2.3155 1.0364-2.3711 1.0755-3.0527 2.1426-0.57086 0.89325-0.68907 1.2584-0.67773 2.0469 0.0159 0.95951 0.015 0.95932 1.0938 1.6484 1.0665 0.68126 1.1029 0.68701 3.3047 0.50977l2.2285-0.17969 5.4727-3.5059c7.9033-5.0612 11.015-7.4258 14.256-10.828 3.7804-3.9691 6.899-6.6104 10.541-8.9297l3.0703-1.9551 4.5976-1.1426c3.1818-0.79257 5.6682-1.2476 8.0664-1.4805 1.9091-0.18527 5.4428-0.5514 7.8652-0.81445 2.7899-0.30255 6.2661-0.46604 9.5039-0.44336l5.1035 0.0332 3.9473 1.123c2.1694 0.61633 5.6317 1.7203 7.6875 2.4531l3.7422 1.334 8.4258 5.3828 2.6328 2.9766c5.5811 6.3094 6.1323 7.0564 7.7559 10.52 1.3561 2.8924 1.529 3.4378 2.125 6.6738 0.75443 4.0962 1.238 9.3584 1.3125 14.295l0.0527 3.4746-1.543 4.1172c-1.8237 4.863-2.6983 6.9281-3.793 8.9688l-0.81446 1.5195-1.5996 0.23633c-0.8832 0.13153-2.6688 0.16534-3.9883 0.0762-1.5243-0.10318-3.0084-0.038-4.1016 0.17969-1.648 0.3284-1.7766 0.39471-3.3828 1.7656-0.95414 0.81442-1.9079 1.797-2.2246 2.293-0.49716 0.77813-0.53689 1.0224-0.37891 2.3574 0.16921 1.4309 0.22034 1.5327 1.2812 2.6211l1.1035 1.1328 1.8438 0.38281c1.5775 0.32844 2.1892 0.32804 4.2285-4e-3 1.3128-0.21343 3.599-0.71506 5.0898-1.1152 2.3018-0.61803 2.9885-0.90664 4.584-1.9355 1.5366-0.99077 2.2169-1.5858 3.7578-3.2832l1.8828-2.0723 0.9414-2.3652 0.94141-2.3652 1.6699-1.9473c1.5392-1.7935 1.8523-2.059 3.9707-3.373 1.9414-1.2042 2.7288-1.5511 5.0527-2.2305 4.6128-1.3487 7.9451-1.8471 11.482-1.7148 1.7153 0.0643 4.2549 0.12942 5.6738 0.14454 2.4333 0.026 2.7265 0.0788 5.5156 1.0254 4.2323 1.4364 7.0023 2.8904 10.381 5.4453 2.3204 1.7546 2.9344 2.3217 4.6543 4.3066 1.0895 1.2573 3.1265 3.5014 4.5274 4.9863 5.2212 5.5353 7.0998 8.4147 10.133 15.529 1.4444 3.3881 2.3851 7.3426 3.25 13.662l0.49219 3.5898-0.63672 3.3672c-0.91961 4.87-1.8238 8.4817-2.8106 11.232v2e-3c-1.2516 3.4875-2.5721 5.5238-6.2559 9.6484-2.4696 2.7654-3.1332 3.395-5.1562 4.8945-1.2838 0.95153-3.8317 2.5591-5.7012 3.5957-1.8695 1.0366-4.77 2.7708-6.4863 3.8789-3.6297 2.3438-4.8113 2.787-11.484 4.3164l-4.3203 0.99024-14.23 0.2832-6.0312-2.002-9.0371-5.916-2.373-0.74414c-2.155-0.67631-2.557-0.72987-4.3887-0.5957-1.3196 0.0967-2.4299 0.33039-3.2109 0.67773l-1.1934 0.53125 0.43359 1.8301c0.23679 1.0035 0.43415 2.4762 0.43555 3.2578 3e-3 1.2497 0.15685 1.7588 1.2559 4.125 0.93914 2.022 1.6332 3.1849 2.7676 4.6367 2.9308 3.751 4.8667 7.7266 7.8418 16.109 0.97471 2.7465 1.0727 3.2128 0.91211 4.2949-0.42429 2.8605-4.6247 9.695-9.7422 15.848l-2.7715 3.332-3.0391 1.8203c-1.6675 0.99942-3.8395 2.1872-4.8144 2.6328l-1.7754 0.81055-2.4434-0.41016c-1.3397-0.2248-4.9432-0.84261-7.9766-1.3691l-5.5332-0.96094-2.916-1.8613-1.2266 0.2832c-1.0834 0.25145-1.5227 0.2089-3.7715-0.35742l-2.5469-0.64063-6.6562-4.5137-1.4766-0.10156c-0.80595-0.0556-2.3548-0.0307-3.4062 0.0547l-1.9277 0.1582-3.248-2.084c-4.0031-2.5662-11.129-7.843-15.033-11.131-9.4128-7.927-12.441-10.869-16.033-15.582-1.3816-1.8124-3.6464-4.7196-5.0195-6.4434-1.699-2.1328-2.9263-3.8997-3.8203-5.502-0.71917-1.2891-1.8067-2.9594-2.3965-3.6797-0.59092-0.72189-1.5533-2.1732-2.127-3.207-1.6437-2.9624-3.7131-5.8328-5.6113-7.7871-1.3029-1.3412-2.0557-2.3251-3.0391-3.9707-0.71996-1.2049-2.2454-3.3577-3.3945-4.791-1.902-2.3722-2.2209-2.6892-3.5879-3.5625-1.9888-1.2704-3.2911-1.7257-3.8633-1.3516-0.24121 0.15727-0.77829 0.81855-1.1875 1.459-0.74291 1.1634-0.74877 1.184-0.57227 3.0293 0.12817 1.3397 0.35083 2.1591 0.79492 2.9375 0.9574 1.6791 2.875 6.0877 3.7109 8.5312 0.67907 1.984 0.7363 2.3866 0.58399 4.0645-0.0934 1.0216-0.14976 3.0817-0.13086 4.5664 0.0444 3.1711-0.54582 6.4403-2.2305 12.365-1.6208 5.7-3.2959 9.3808-6.666 14.656-2.3688 3.7079-2.7505 4.2233-4.584 6.1738l-2 2.127-0.95117-0.0137c-0.51916-8e-3 -2.1007 0.0177-3.4785 0.0566-1.5469 0.0453-3.3084-0.0828-4.5469-0.32813-1.7371-0.34435-6.5782-2.0015-9.1543-3.1328-0.51303-0.22602-1.4353-0.35484-2.3965-0.33594-2.0625 0.0402-4.0699-0.46427-7.3594-1.8535-1.4862-0.62763-4.0377-1.6675-5.6504-2.3008-2.5796-1.0143-3.1497-1.3034-4.6504-2.377-0.94179-0.6734-3.9471-2.7583-6.6856-4.6387-4.8502-3.3299-5.0406-3.4827-7.7188-6.1191-1.5152-1.4917-3.9022-3.6593-5.3242-4.8359-1.4127-1.1693-3.5312-3.0571-4.6875-4.1797-1.9842-1.9263-2.2744-2.3074-4.9121-6.4258-2.6377-4.1184-2.9061-4.4701-4.5312-5.9102-0.99409-0.88097-2.5314-2.5217-3.6191-3.8652l-1.8906-2.3359-1.1543-3.3008c-0.63821-1.8244-1.5444-4.5152-2.0273-6.0176-0.47959-1.4914-1.3776-3.8265-1.9883-5.1738-0.90637-1.9991-1.1712-2.8888-1.4297-4.7832-0.27716-2.0309-0.25689-2.6414 0.16797-4.8144 0.42482-2.173 0.44418-2.7577 0.15429-4.5898-0.21278-1.3466-0.24409-2.4741-0.0898-3.1445l0.24023-1.043-2.6973-2.0566-0.56836-1.9531c-0.55846-1.9203-0.59602-1.9834-2.248-3.7812-2.6039-2.8338-3.5939-3.6463-5.4805-4.498l-1.6211-0.73047-2.0117 0.82617c-1.9437 0.79929-2.0339 0.86163-2.6738 1.8633-0.48559 0.76018-0.79719 1.6165-1.168 3.207-0.52233 2.2498-0.61487 4.6133-0.34765 9.127 0.10461 1.7706 6e-3 2.7581-0.53125 5.3574-0.63511 3.0704-0.71293 3.2948-2.1621 6.1426-3.0367 5.9668-5.9982 10.003-11.629 15.852-1.5138 1.5723-3.5047 3.7491-4.4394 4.8535-1.5904 1.8794-1.7942 2.0556-3.3223 2.8613-1.021 0.53824-2.5624 1.0797-4.1328 1.4531-2.0927 0.49556-3.0657 0.58416-5.9199 0.51953-5.5447-0.12518-9.183-0.6002-12.619-1.6465-2.0619-0.62797-4.2187-1.0877-6.998-1.4922-3.7719-0.54897-4.2679-0.67414-8.125-2.0664-4.6285-1.6708-4.0428-1.2555-6.8008-4.8457l-1.6856-2.1914-1.7695-0.83399c-1.6027-0.75526-1.9668-1.0077-3.8652-2.6797-2.3087-2.0333-4.6045-3.8258-12.879-10.043l-5.5332-4.1562-1.9688-2.3027c-1.0879-1.2717-3.2468-3.6501-4.8203-5.3105-1.6302-1.7205-3.9193-4.4161-5.3496-6.3008-1.3788-1.8168-3.5476-4.5695-4.8359-6.1387l-2.334-2.8438-3.1621-6.3633c-2.8866-5.8091-3.2431-6.6568-4.0976-9.7285-1.3247-4.762-3.6755-11.172-5.418-14.775-0.88161-1.8234-2.0104-4.6929-2.8125-7.1524-0.73803-2.2625-1.9404-5.4758-2.6777-7.1562-0.73437-1.6738-1.7616-4.567-2.2774-6.4102-1.2004-4.2914-3.1562-10.178-4.9121-14.785-1.3124-3.4438-1.4554-3.714-3.1738-5.9902-0.99412-1.3166-3.0951-3.8487-4.6934-5.6562-1.5982-1.8076-3.7665-4.4841-4.8437-5.9785-1.075-1.4913-3.2181-4.1381-4.7754-5.8984-2.1362-2.4143-3.2749-3.8935-4.668-6.0664-1.3767-2.1473-2.467-3.5682-4.3145-5.6172l-2.4726-2.7422-3.4062-2.1758c-2.4944-1.5935-4.1622-2.7984-6.2422-4.5098l-2.8398-2.3359-6.0234-3.0898c-10.422-5.3439-11.702-6.1045-20.891-12.438l-8.123-5.5996-9.7031-9.3301-5.9375-3.5215c-3.2705-1.939-6.5561-3.9152-7.3125-4.3984-1.1003-0.70291-2.1287-1.1244-5.168-2.125-2.082-0.68553-5.4787-1.8821-7.5273-2.6504-2.8145-1.0554-4.6815-1.6084-7.584-2.2461-2.9552-0.64929-4.1796-1.0145-5.2637-1.5703l-1.4121-0.72266 0.75196-0.92187c1.68-2.0595 5.9649-6.3168 7.9824-7.9297 1.1795-0.94337 4.128-3.01 6.5527-4.5938 7.1273-4.6551 7.7161-5.0842 9.3672-6.832 1.9712-2.0871 4.8399-4.6213 5.0664-4.4766zm232.48 44.588c-0.26124-0.0204-3.8718 0.11446-8.0254 0.30079l-7.5488 0.33984-4.1426 1.2461c-2.2874 0.68803-6.9684 1.8838-10.453 2.6719-6.0364 1.3649-6.4951 1.5064-10.523 3.2461-2.3237 1.0035-7.1301 3.0388-10.723 4.541-9.2288 3.8585-18.68 8.4381-24.506 11.875-1.4872 0.87734-4.0191 2.1966-5.627 2.9316-4.0496 1.851-10.028 5.7004-11.711 7.541-0.65764 0.71902-1.1947 1.3814-1.1758 1.457 0.0169 0.0762 0.8667 0.29603 1.9043 0.49218 1.4526 0.27515 2.6046 0.28965 5.123 0.0625 3.9382-0.35539 6.6787-1.1259 13.033-3.6641 2.6516-1.059 6.2299-2.2866 8.5215-2.9219 3.3448-0.92716 4.6124-1.4077 8.2617-3.1348 3.5985-1.7027 16.567-7.0275 21.463-8.8125 3.5713-1.3022 15.645-5.0351 19.576-6.0527 2.5354-0.65651 7.2222-1.6006 11.01-2.2168 7.1514-1.1639 10.171-2.0223 14.834-4.2227 1.8591-0.87707 2.3456-1.1964 2.7168-1.7773 0.24756-0.38763 0.4133-0.73148 0.36719-0.76172-0.65413-0.41786-10.95-3.0329-12.375-3.1406zm-160.06 19.785c-0.29681 0.0105-0.59633 0.0468-0.96485 0.0996-1.0676 0.15194-2.054 0.47867-3.043 1.0098l-1.4629 0.78711-0.0234 0.88671c-0.0277 1.1215-0.0276 1.1224 1.2656 2.293 1.4609 1.3224 5.9851 3.8565 11.867 6.6484 2.6965 1.2798 6.3368 3.1942 9.5039 4.998 4.1763 2.3784 6.0462 3.3291 10.029 5.1035 6.0226 2.6834 12.064 5.8086 13.826 7.1504 1.305 0.9933 2.3053 2.3366 7.1524 9.6094 0.67865 1.018 1.7866 2.5272 2.4863 3.3887 0.8307 1.0229 1.8391 2.6733 2.9531 4.8301 0.93354 1.8072 2.935 5.2886 4.4629 7.7637 2.6942 4.3643 2.801 4.5816 3.8828 7.8926 1.086 3.3238 1.1822 3.5169 4.0742 8.2031 2.8453 4.6106 3.0182 4.9586 4.4258 8.8223 2.8299 7.7684 6.2483 15.334 9.8789 21.873l1.8203 3.2793 3.1699 3.2129c2.4748 2.5075 3.9095 4.1698 6.5449 7.5859 1.8565 2.4065 4.6956 5.9868 6.3086 7.957l2.9316 3.582 4 2.9356c3.8457 2.8219 4.0562 2.9541 5.4766 3.4277 1.0174 0.33903 1.6002 0.42185 1.873 0.26954 0.49599-0.27742 1.3432-1.8933 1.7344-3.3047 0.30104-1.0862 0.28827-1.1518-0.67578-3.1719-1.3549-2.8395-3.6174-6.2246-6.8066-10.186-2.6566-3.2991-2.7664-3.474-6.8144-10.883-2.5712-4.7055-4.5647-8.6328-5.3164-10.475-1.2069-2.9566-3.6219-7.7047-6.9434-13.65-1.4281-2.5568-1.9313-3.7112-2.6016-5.957-0.74086-2.4833-1.0506-3.1477-2.8496-6.127-1.1071-1.8334-2.562-4.5046-3.2226-5.916-0.66048-1.4111-1.9581-3.9934-2.873-5.7188-2.067-3.8973-4.0863-9.7658-3.8652-11.234l0.13671-0.91016 1.9707-0.25976 4.8652 3.2148c4.2683 2.8205 5.5397 3.5696 10.375 6.1055 10.826 5.678 18.313 9.2923 22.945 11.076 5.1236 1.9731 10.807 4.6611 13.523 6.3965 1.382 0.88289 2.4069 1.6902 3.4258 2.6992l1.4551 1.4375 1.7969-0.28711c1.6361-0.26147 1.943-0.23621 3.4199 0.27539l1.623 0.5625 4.041 5.002 2.3027 0.42773c2.212 0.40993 2.4239 0.40362 5.3848-0.14453l3.082-0.57031 9.1289 5.4746 2.9316 2.9883c2.4866 2.5346 3.0983 3.2698 4.0273 4.8398 1.3176 2.2268 3.2398 4.2185 5.4141 5.6074 0.90822 0.58027 2.4253 1.829 3.9883 3.2832l2.5234 2.3477 2.584 4.332c1.4183 2.3783 3.8291 6.3228 5.3438 8.7441 4.1684 6.6633 10.26 17.118 12.396 21.275 2.4759 4.8175 2.307 4.5456 4.7812 7.6348 3.0015 3.7472 7.1713 8.5393 12.975 14.91 5.552 6.0949 7.0527 7.4231 10.84 9.5918 2.3805 1.3632 4.4403 2.0206 6.4668 2.0644 0.67896 0.0151 1.2516 0.0189 1.2988 8e-3 0.0465-0.0102 0.12526-0.46636 0.17969-1.0254 0.20341-2.1231-2.1836-7.7242-5.4883-12.879-0.74888-1.1681-1.778-3.0444-2.2754-4.1484-0.49845-1.1069-1.6903-3.2599-2.6445-4.7754-1.5193-2.4126-2.0557-3.0816-4.2578-5.3184-1.9926-2.0238-3.1115-3.3747-5.3594-6.4688-3.4981-4.8149-5.4805-7.2444-8.5176-10.443-1.2875-1.356-3.4388-3.7556-4.7812-5.332-2.522-2.9621-3.3503-4.315-5.1113-8.3438-1.8706-4.2791-3.9848-8.2288-5.875-10.979l-1.9922-2.8984-0.0469-1.5957c-0.0561-1.915 0.27316-2.5554 1.791-3.4844l1.0254-0.62696 5.5566 1.7402c6.387 2.0016 9.2809 3.0308 14.295 5.0781 1.9765 0.80697 4.767 1.8416 6.1973 2.2988 2.2665 0.72454 2.8537 0.99305 4.5645 2.0859 1.8059 1.1537 2.1851 1.316 4.7148 2.0371 1.5056 0.42928 4.0231 0.97572 5.5644 1.207 2.7289 0.40921 2.8872 0.46012 5.1309 1.6289 6.7668 3.5247 11.146 5.1539 14.283 5.3184 2.4163 0.12654 5.4797 1.0447 8.3672 2.5059 1.1342 0.57411 3.5513 1.7234 5.3711 2.5527 3.0834 1.4058 3.5902 1.6978 7.457 4.3008 8.2314 5.5414 16.869 11.998 23.211 17.348 8.3739 7.0645 14.578 12.688 19.162 17.369 9.2496 9.4458 11.003 11.085 18.348 17.162 7.6697 6.3464 9.1988 7.8219 12.486 12.031 1.1158 1.4291 3.0605 3.7154 4.3359 5.0996 1.2754 1.3841 2.9568 3.412 3.748 4.5195l1.4336 2.0078 4.8711 3.1113c4.2641 2.7241 8.2313 5.0028 9.6367 5.5352 0.38604 0.14578 0.48608 0.0779 0.83984-0.57422l0.40235-0.74023-3.1504-3.9824c-2.6398-3.3364-4.1398-5.0006-9.2363-10.248-7.1297-7.3404-10.915-11.735-13.354-15.504-4.7442-7.3314-7.4095-10.99-12.773-17.527-8.9398-10.896-15.14-18.993-18.309-23.91-0.73292-1.1375-1.5048-1.9894-3.3379-3.6895-1.3114-1.2163-2.7144-2.5995-3.1172-3.0723l-0.73242-0.85938 2.3828 0.13477c1.7254 0.0969 4.0434 0.50777 8.3984 1.4922 10.037 2.2687 28.488 6.3259 31.941 7.0234 3.408 0.68841 18.863 3.0552 24.537 3.7578 5.96 0.73811 12.933 1.9438 16.564 2.8633 1.9612 0.49651 4.8151 1.0598 6.3223 1.248 1.5075 0.18819 4.3726 0.6407 6.3476 1.0039 2.2935 0.42274 4.8646 0.70862 7.0879 0.79101 1.9243 0.0728 5.0021 0.26282 6.8613 0.42383 3.8207 0.33494 9.2961 0.0314 11.404-0.63281 0.71085-0.22443 2.6223-0.62896 4.2422-0.89844 2.4961-0.4151 3.0989-0.59778 3.9375-1.1875v-2e-3c1.1669-0.82069 1.0999-0.73349 0.81835-1.0566-1.4572-1.6718-5.2518-3.5551-10.686-5.3027-4.7123-1.5154-10.797-2.5672-21.799-3.7715-7.808-0.8547-8.2597-0.93294-12.725-2.1484-6.975-1.8984-12.811-3.059-17.541-3.4883-2.6105-0.23686-5.6516-0.69903-8.4336-1.2852-2.3846-0.5024-5.7585-1.0646-7.4648-1.2441-3.6317-0.38207-14.729-2.726-20.703-4.3711-2.2244-0.6127-8.2655-1.9954-13.457-3.082l-9.4199-1.9727-3.7852-1.5273c-2.0755-0.8377-5.2773-1.9457-7.0938-2.4551-1.8211-0.51073-4.9002-1.4485-6.8438-2.084-5.8304-1.9068-11.509-3.4781-13.451-3.7227-1.15-0.14498-2.7496-0.56362-4.332-1.1328-1.3894-0.50003-2.5139-0.92875-2.5215-0.95899-7e-3 -0.0285 0.90733-0.0405 2.0371-0.0254 1.1242 0.0147 3.5033-0.11841 5.2774-0.29492 3.0808-0.30614 3.4169-0.39219 7.1914-1.873 3.2452-1.2732 4.6426-1.6856 7.7578-2.2832 3.6364-0.69736 4.1206-0.85743 11.217-3.7051 8.237-3.3054 13.89-5.9809 18.736-8.8672 3.0763-1.832 3.3812-1.9621 7.2734-3.125 2.2227-0.66403 5.8692-1.8281 8.0508-2.5703 3.3937-1.1546 4.4004-1.6052 6.7617-3.0254 2.5452-1.5304 2.9871-1.7186 5.3555-2.2734 2.147-0.50329 2.814-0.76651 3.959-1.5547l1.377-0.94727 0.37304-1.8496c0.41594-2.0601 0.41688-2.0598-1.4902-2.4551-3.3404-0.69263-18.797 3.0709-26.424 6.4336-1.5891 0.70065-4.7759 1.8256-7.0449 2.4883-2.8721 0.83875-5.2237 1.7058-7.668 2.8262-5.9698 2.7365-12.127 5.1734-15.76 6.2363-1.9113 0.55922-5.2631 1.6204-7.4746 2.3672-3.5967 1.2154-4.3868 1.3952-7.6621 1.7402-2.0138 0.21237-5.682 0.8119-8.1777 1.3379-3.2911 0.69362-5.5344 1.014-8.2266 1.1758-2.0483 0.12276-5.396 0.3947-7.4961 0.60938-2.0959 0.21369-6.2573 0.41312-9.291 0.44336-8.9528 0.0909-13.077-0.62933-28.203-4.9258-5.1224-1.4549-9.907-2.954-12.656-3.9648-4.2404-1.559-4.6742-1.6736-10.668-2.8047l-6.248-1.1777-4.1914-1.8008c-9.089-3.9017-10.14-4.4124-13.561-6.5977-3.0169-1.9273-7.8596-4.4209-11.125-5.7285-0.83161-0.33294-0.8979-0.401-1.0332-1.0762-0.0824-0.40831-0.1239-0.75902-0.0898-0.80665 0.13995-0.21931 4.8829-0.58695 7.9883-0.61718 8.3845-0.0851 13.847-0.92863 21.18-3.2715 2.526-0.807 5.886-1.801 7.4883-2.2168 4.3858-1.1378 11.009-3.2698 14.205-4.5723 1.5702-0.63987 4.181-1.6729 5.8516-2.3144 4.9415-1.8983 11.295-4.6515 14.607-6.3301 4.2259-2.1419 9.5275-4.4472 13.75-5.9785 1.9193-0.69626 5.0233-1.8613 6.8555-2.5742 1.847-0.71866 4.4089-1.5815 5.7148-1.9258 4.0003-1.054 5.7902-1.8786 8.7891-4.0449 2.3539-1.7001 2.7796-2.0856 3.6152-3.2793l0.94727-1.3535-1.5078-0.96289c-1.399-0.89371-1.6477-0.9831-3.4082-1.2246-2.2678-0.31106-7.5865-0.0851-13.562 0.57617-3.9073 0.43227-4.5152 0.56569-6.7988 1.4844-1.3888 0.55861-3.8844 1.5036-5.5957 2.1191-7.8909 2.8382-18.575 7.0897-22.547 8.9726-6.5764 3.1177-13.208 5.7793-21.178 8.4961-11.773 4.0131-13.52 4.6609-16.645 6.1699-2.243 1.0832-3.93 1.7002-6.9512 2.5469-2.1948 0.61512-5.1873 1.5288-6.6524 2.0293-7.1657 2.4471-13.983 3.8118-20.094 4.0254-4.0885 0.14279-4.1205 0.13356-9.377-2.709-3.032-1.6396-4.0562-2.0819-8.6465-3.7383-2.8679-1.0349-7.8212-2.9726-11.023-4.3125-5.4308-2.2725-6.1435-2.5174-10.797-3.7168l-4.9824-1.2852-4.6309-2.2226c-2.544-1.221-7.4678-3.3926-10.924-4.8184-3.4561-1.4256-8.8461-3.7465-11.959-5.1484-3.1146-1.4028-6.7062-3.0034-7.9727-3.5527-4.3298-1.8784-12.088-5.6169-15.26-7.3535-1.9873-1.0879-4.4868-2.6383-6.7148-4.166l-3.5469-2.4337-2.3594-0.58008c-1.2919-0.31816-3.3822-0.74285-4.623-0.9375-2.2003-0.34503-2.3543-0.40109-5.3887-1.9668-3.2616-1.6828-7.5183-3.574-16.359-7.2695-4.9638-2.0747-5.4937-2.3394-9.9023-4.9316l-4.6582-2.7383-3.8223-0.98242c-2.6757-0.6876-3.5471-0.88706-4.4375-0.85547zm-183.04 170.64c460.37 580.49 869.13 25.861 869.13 25.861s-421.9 393.95-869.13-25.861z" fill="#8f68a2"/>
</svg>
