<?xml version="1.0" encoding="UTF-8" standalone="no"?>
<svg
   xmlns:dc="http://purl.org/dc/elements/1.1/"
   xmlns:cc="http://creativecommons.org/ns#"
   xmlns:rdf="http://www.w3.org/1999/02/22-rdf-syntax-ns#"
   xmlns:svg="http://www.w3.org/2000/svg"
   xmlns="http://www.w3.org/2000/svg"
   xmlns:sodipodi="http://sodipodi.sourceforge.net/DTD/sodipodi-0.dtd"
   xmlns:inkscape="http://www.inkscape.org/namespaces/inkscape"
   inkscape:version="1.0 (4035a4f, 2020-05-01)"
   sodipodi:docname="title_logo.svg"
   id="svg8506"
   viewBox="0 0 303 150"
   version="1.1"
   height="150mm"
   width="303mm">
  <defs
     id="defs8510" />
  <sodipodi:namedview
     inkscape:current-layer="svg8506"
     inkscape:window-maximized="0"
     inkscape:window-y="25"
     inkscape:window-x="0"
     inkscape:cy="181.65759"
     inkscape:cx="621.08259"
     inkscape:zoom="0.36739901"
     showgrid="false"
     id="namedview8508"
     inkscape:window-height="777"
     inkscape:window-width="1256"
     inkscape:pageshadow="2"
     inkscape:pageopacity="0"
     guidetolerance="10"
     gridtolerance="10"
     objecttolerance="10"
     borderopacity="1"
     bordercolor="#666666"
     pagecolor="#ffffff" />
  <metadata
     id="metadata8502">
    <rdf:RDF>
      <cc:Work
         rdf:about="">
        <dc:format>image/svg+xml</dc:format>
        <dc:type
           rdf:resource="http://purl.org/dc/dcmitype/StillImage" />
        <dc:title></dc:title>
      </cc:Work>
    </rdf:RDF>
  </metadata>
  <path
     style="fill:#8f68a2;fill-opacity:1"
     transform="scale(0.26458334)"
     d="M 20,11.427734 V 188.56641 H 155.70898 V 11.427734 Z M 32.710938,24 c 3.982149,0.284436 9.599807,0.425781 16.853515,0.425781 L 86.042969,24 c 16.781791,0 29.583501,2.275129 38.400391,6.826172 8.81769,4.551042 13.22656,12.514721 13.22656,23.892578 0,7.679903 -1.9904,14.294867 -5.97265,19.841797 -3.83996,5.54663 -8.67659,9.741473 -14.50782,12.585937 6.96882,1.706679 13.58193,5.191092 19.83985,10.453125 7.5377,6.257721 11.30664,15.288901 11.30664,27.093751 0,11.66185 -2.91507,21.11818 -8.7461,28.37109 -5.83102,7.25321 -13.29655,12.51615 -22.39843,15.78711 -8.95989,3.27106 -20.267098,4.90625 -33.919926,4.90625 -22.18672,-0.56889 -33.563819,-0.85351 -34.132812,-0.85351 l -17.066406,0.42578 v -4.90625 c 2.844364,-6.96881 4.265625,-16.9234 4.265625,-29.86524 V 60.693359 c 0,-13.937824 -1.209184,-24.604093 -3.626953,-32 z m 615.261722,11.478516 -32.83204,3.457031 c -1.02398,5.631929 -4.28903,17.471759 -9.79296,35.519531 -5.50393,18.047773 -13.50218,41.598662 -23.99805,70.654302 -15.8718,-40.70349 -25.92254,-67.519434 -30.14649,-80.447271 -4.09594,-12.927837 -6.78056,-22.463499 -8.06054,-28.607421 l -31.68164,2.496093 v 4.22461 c 0.51199,6.271921 0.76953,14.527707 0.76953,24.767578 0,38.527511 -2.43294,72.318271 -7.29688,101.378911 v 4.2246 h 26.30469 v -4.2246 c -0.38399,-10.11188 -0.57617,-22.58969 -0.57617,-37.4375 0,-14.97582 0.70338,-33.728148 2.11133,-56.255864 22.91171,60.543234 34.36718,93.823924 34.36718,99.839844 l 23.23047,-2.30274 c 5.88793,-20.35174 16.70542,-52.54472 32.44922,-96.576167 2.30397,20.991735 3.45508,43.391517 3.45508,67.199217 0,9.47188 -0.19218,17.98325 -0.57617,25.53516 v 4.22265 h 31.67773 v -4.22265 c -3.45595,-24.0637 -5.94839,-46.84784 -7.48437,-68.35156 -1.40798,-21.631732 -2.11328,-36.479075 -2.11328,-44.542973 0,-8.191897 0.0654,-13.632347 0.19336,-16.320313 v -4.224609 z m 90.47656,0.384765 -29.56445,2.878907 c -0.512,4.223946 -2.305,11.136449 -5.37696,20.736328 -3.07196,9.47188 -9.5363,28.927558 -19.39258,58.367184 -9.85587,29.43963 -18.11166,46.46237 -24.76757,51.07032 v 4.2246 h 32.25586 v -4.2246 c 0,-6.01593 0.3843,-10.68767 1.15234,-14.01563 0.76799,-3.45596 3.26433,-12.48045 7.48828,-27.07227 5.24793,-0.12799 12.16044,-0.1914 20.73633,-0.1914 8.57589,0 15.29426,0.0634 20.1582,0.1914 8.0639,22.01573 12.0957,35.71196 12.09571,41.0879 v 4.2246 h 40.70312 v -4.2246 c -3.71195,-2.94397 -7.04041,-6.91081 -9.98438,-11.90235 C 777.8092,147.1578 766.8649,120.72425 751.12109,77.716797 742.6732,54.677087 738.44922,40.72722 738.44922,35.863281 Z m 88.1914,0.958985 -30.33593,2.113281 v 4.222656 c 1.66398,9.727877 2.49609,24.129412 2.49609,43.201172 v 38.974605 c 0,21.37573 -1.02429,35.90213 -3.07226,43.58204 v 4.2246 h 26.30468 v -4.2246 c -2.43197,-9.21589 -3.64843,-21.88783 -3.64843,-38.01563 V 72.535156 l 73.34375,102.718754 25.15039,-2.49414 c -0.512,-1.91998 -1.14998,-7.29692 -1.91797,-16.12891 -0.76799,-8.83199 -1.1543,-16.96086 -1.1543,-24.38477 V 86.550781 c 0,-7.295908 0.32095,-15.551694 0.96094,-24.767578 0.63999,-9.343882 1.34334,-15.614493 2.11133,-18.814453 v -4.224609 h -27.07032 v 4.224609 c 1.15199,3.19996 2.17628,8.765372 3.07227,16.701172 0.89599,7.807901 1.34375,14.977942 1.34375,21.505859 V 131.66992 Z M 83.919922,37.226562 c -7.679903,0 -13.369453,0.213961 -17.066406,0.640626 -0.142219,1.991074 -0.214844,17.422332 -0.214844,46.292968 h 14.507812 c 18.203771,0 27.306636,-7.822394 27.306636,-23.466797 0,-8.533192 -2.13374,-14.576857 -6.40039,-18.132812 -4.266642,-3.555555 -10.310907,-5.333984 -18.132808,-5.333985 z m 165.369138,0.9375 v 0.002 c 0.63999,7.295908 0.95899,13.824057 0.95899,19.583984 h 3.64843 c 14.97582,-3.327958 27.26145,-5.182411 36.86133,-5.566406 0.512,6.527917 0.76953,16.382572 0.76953,29.566406 v 50.111334 c 0,17.02378 -0.89752,29.37478 -2.68945,37.05469 v 4.2246 h 33.02539 v -4.2246 c -2.04797,-7.67991 -3.07226,-20.22308 -3.07226,-37.63086 V 80.980469 c 0,-12.799839 0.25558,-22.398909 0.76757,-28.798828 10.36787,0.383995 22.78423,2.238448 37.24805,5.566406 h 3.64844 c 0,-5.759927 0.31704,-12.288076 0.95703,-19.583985 -24.95969,0.383996 -43.6447,0.576172 -56.06055,0.576172 -12.41584,0 -31.10281,-0.192176 -56.0625,-0.576172 z m -0.98047,0.002 -89.27929,0.576172 v 4.224609 c 2.17597,9.215884 3.26367,22.143413 3.26367,38.783203 v 48.574224 c 0,16.51179 -1.0877,29.37591 -3.26367,38.5918 v 4.2246 h 91.96875 l 3.64843,-20.35156 h -3.64843 c -4.47995,1.79198 -11.52122,3.26403 -21.1211,4.41602 -9.59988,1.15198 -17.85566,1.72851 -24.76757,1.72851 -6.78392,0 -11.64784,-0.12877 -14.5918,-0.38476 -0.384,-4.22395 -0.57617,-17.08807 -0.57617,-38.5918 V 109.7813 c 2.30397,-0.256 8.12847,-0.38477 17.47265,-0.38477 9.47188,0 16.63997,0.51314 21.50391,1.53711 h 3.64844 l 6.71875,-15.9375 -49.34375,0.960937 c 0,-22.911711 0.12877,-37.311293 0.38476,-43.199219 2.94396,-0.255996 7.03928,-0.384765 12.28711,-0.384765 17.91978,0 30.01714,0.895522 36.28906,2.6875 h 3.64649 z m 248.36719,0 -89.2793,0.576172 v 4.224609 c 2.17598,9.215884 3.26368,22.143413 3.26368,38.783203 v 48.574224 c 0,16.51179 -1.0877,29.37591 -3.26368,38.5918 v 4.2246 h 91.96875 l 3.64844,-20.35156 h -3.64844 c -4.47994,1.79198 -11.52121,3.26403 -21.12109,4.41602 -9.59988,1.15198 -17.85566,1.72851 -24.76758,1.72851 -6.78391,0 -11.64783,-0.12877 -14.59179,-0.38476 -0.384,-4.22395 -0.57618,-17.08807 -0.57618,-38.5918 V 109.7813 c 2.30397,-0.256 8.12848,-0.38477 17.47266,-0.38477 9.47188,0 16.63997,0.51314 21.50391,1.53711 h 3.64843 l 6.71875,-15.9375 -49.34375,0.960937 c 0,-22.911711 0.12877,-37.311293 0.38477,-43.199219 2.94396,-0.255996 7.03927,-0.384765 12.28711,-0.384765 17.91977,0 30.01714,0.895522 36.28906,2.6875 h 3.64649 z m -130.58984,0.576172 v 4.224609 c 2.30397,6.655916 3.45703,19.393221 3.45703,38.208984 v 52.988283 c 0,21.11974 -1.21647,36.28802 -3.64844,45.50391 -2.30397,9.21588 -7.29626,17.08927 -14.97656,23.61719 -4.22395,3.45595 -7.80799,6.20788 -10.75195,8.25586 l 10.17578,9.21679 15.36132,-11.13672 c 1.02399,-0.76799 3.2628,-2.56098 6.71876,-5.37695 3.45595,-2.81596 5.76012,-4.99136 6.9121,-6.52734 1.15199,-1.53598 2.94499,-3.90356 5.37696,-7.10352 2.55997,-3.07196 4.2876,-6.07947 5.18359,-9.02344 1.02399,-2.81596 2.43263,-6.91323 4.22461,-12.28906 1.79198,-5.50393 2.6875,-14.52842 2.6875,-27.07226 V 83.09375 c 0,-4.991937 0.25559,-12.158071 0.76758,-21.501953 0.63999,-9.471881 1.4087,-15.681037 2.30469,-18.625 v -4.224609 z m 353.74609,24.193359 c 5.88793,15.231808 10.49626,28.54369 13.82422,39.935547 1.53598,5.11994 2.68709,8.76584 3.45508,10.94141 h -33.21485 c 6.39992,-21.75973 11.7116,-38.71711 15.93555,-50.876957 z M 66.640625,97.171875 c 0,33.990575 0.21397,54.399645 0.640625,61.226565 5.688828,0.85333 10.02671,1.27929 13.013672,1.27929 10.808864,0 19.485426,-2.91506 26.027348,-8.74609 6.68431,-5.83103 10.02343,-13.65292 10.02343,-23.4668 0,-20.19574 -14.07863,-30.292965 -42.238278,-30.292965 z M 42.009766,192.56641 V 369.70508 H 236.4375 V 192.56641 Z m 171.757814,12.23632 v 4.6875 c -0.14222,2.98667 -0.21289,9.03053 -0.21289,18.13282 0,8.95988 0.78128,25.45749 2.3457,49.49218 1.70668,23.8927 4.48036,49.21061 8.32031,75.94727 v 4.69336 h -35.19922 v -4.69336 c 0.42667,-8.39099 0.63868,-17.84918 0.63868,-28.37305 0,-26.45266 -1.27988,-51.34426 -3.83985,-74.66797 -17.49278,48.92339 -29.50886,84.69188 -36.05078,107.3086 l -25.8125,2.56054 c 0,-6.68431 -12.73082,-43.66158 -38.187499,-110.92773 -1.56438,25.03069 -2.345703,45.86412 -2.345703,62.50391 0,16.49779 0.212007,30.3657 0.638672,41.60156 v 4.69336 H 54.835938 v -4.69336 c 5.404331,-32.28359 8.107421,-69.83121 8.107421,-112.63867 0,-11.37786 -0.284642,-20.55062 -0.853515,-27.51953 v -4.69336 l 35.199218,-2.77344 c 1.422183,6.82661 4.409898,17.42329 8.960938,31.78711 4.69324,14.36382 15.85741,44.16029 33.49219,89.38672 11.66185,-32.2836 20.55009,-58.45407 26.66601,-78.50781 6.11593,-20.05375 9.74102,-33.20888 10.87891,-39.4668 z m 904.81052,14.26368 -32.832,3.45703 c -1.024,5.63193 -4.2871,17.47176 -9.791,35.51953 -5.504,18.04777 -13.5042,41.60062 -24,70.65625 -15.8718,-40.70349 -25.9206,-67.52138 -30.1446,-80.44922 -4.0959,-12.92784 -6.7844,-22.46155 -8.0644,-28.60547 l -31.67969,2.49609 v 4.22461 c 0.51199,6.27193 0.76757,14.52771 0.76757,24.76758 0,38.52752 -2.43098,72.31828 -7.29492,101.37891 v 4.22461 h 26.30274 v -4.22461 c -0.384,-10.11187 -0.5742,-22.59164 -0.5742,-37.43945 0,-14.97582 0.7034,-33.72815 2.1113,-56.25586 22.9117,60.54323 34.3672,93.82392 34.3672,99.83984 l 23.2324,-2.30273 c 5.8879,-20.35175 16.7015,-52.54278 32.4453,-96.57422 2.304,20.99173 3.4571,43.38956 3.4571,67.19726 0,9.47188 -0.1922,17.98325 -0.5762,25.53516 v 4.22461 h 31.6797 v -4.22461 c -3.456,-24.0637 -5.9523,-46.84783 -7.4883,-68.35156 -1.408,-21.63173 -2.1113,-36.47907 -2.1113,-44.54297 0,-8.1919 0.063,-13.63235 0.1914,-16.32031 v -4.22266 z m -515.82615,1.34375 -30.33398,2.11328 v 4.22265 c 1.66398,9.72788 2.49609,24.12942 2.49609,43.20118 v 38.97461 c 0,21.37573 -1.02429,35.90408 -3.07226,43.58398 v 4.22461 h 26.30468 v -4.22461 c -2.43196,-9.21588 -3.64843,-21.88783 -3.64843,-38.01563 v -58.36718 l 73.34179,102.71875 25.15235,-2.49414 c -0.512,-1.91998 -1.15193,-7.29692 -1.91992,-16.12891 -0.76799,-8.83199 -1.15235,-16.96086 -1.15235,-24.38477 v -45.69336 c 0,-7.2959 0.31899,-15.55169 0.95899,-24.76757 0.63999,-9.34389 1.34529,-15.61645 2.11328,-18.81641 v -4.22461 h -27.07227 v 4.22461 c 1.15199,3.19996 2.17628,8.76733 3.07227,16.70313 0.89599,7.8079 1.34375,14.97794 1.34375,21.50585 v 50.49219 l -67.58203,-94.8457 z m 124.00196,0 -30.33594,2.11328 v 4.22265 c 1.66397,9.7279 2.49609,24.12942 2.49609,43.20118 v 38.97461 c 0,21.37572 -1.02425,35.90409 -3.07226,43.58398 v 4.22461 h 26.30468 v -4.22461 c -2.43197,-9.21585 -3.64843,-21.88785 -3.64843,-38.01563 v -58.36718 l 73.34375,102.71875 25.15039,-2.49414 c -0.51198,-1.92 -1.15192,-7.29695 -1.91992,-16.12891 -0.76797,-8.832 -1.15235,-16.96083 -1.15235,-24.38477 v -45.69336 c 0,-7.29592 0.31904,-15.55168 0.95899,-24.76757 0.63998,-9.34386 1.34528,-15.61647 2.11328,-18.81641 v -4.22461 h -27.07031 v 4.22461 c 1.15199,3.19994 2.17629,8.76733 3.07226,16.70313 0.89598,7.80791 1.34375,14.97797 1.34375,21.50585 v 50.49219 l -67.58398,-94.8457 z m -161.59571,1.34375 -89.27929,0.57617 v 4.22461 c 2.17597,9.21588 3.26367,22.14341 3.26367,38.7832 v 48.57422 c 0,16.51179 -1.0877,29.37591 -3.26367,38.5918 v 4.22461 h 91.96679 l 3.64844,-20.35157 h -3.64844 c -4.47994,1.79198 -11.51926,3.26403 -21.11914,4.41602 -9.59988,1.15198 -17.85566,1.72851 -24.76758,1.72851 -6.78391,0 -11.64783,-0.12876 -14.59179,-0.38476 -0.384,-4.22395 -0.57617,-17.08807 -0.57617,-38.5918 v -10.17578 c 2.30397,-0.256 8.12652,-0.38476 17.4707,-0.38476 9.47188,0 16.63997,0.51313 21.5039,1.5371 h 3.64844 l 6.72071,-15.9375 -49.34375,0.96094 c 0,-22.91171 0.12681,-37.31129 0.38281,-43.19922 2.94396,-0.25599 7.04123,-0.38476 12.28906,-0.38476 17.91977,0 30.01519,0.89552 36.28711,2.6875 h 3.64844 z m -320.52734,0.57617 v 4.22461 c 2.04797,7.6799 3.07226,20.41721 3.07226,38.20898 v 47.80664 c 0,18.94376 -1.02429,32.25565 -3.07226,39.93555 v 4.22461 h 33.4082 v -4.22461 c -2.04797,-7.6799 -3.07226,-20.99179 -3.07226,-39.93555 v -45.88672 c 0,-4.99193 0.25558,-12.16197 0.76758,-21.50586 0.63999,-9.47188 1.40869,-15.67908 2.30468,-18.62304 v -4.22461 z m 39,0 v 4.22461 c 2.04797,7.6799 3.07227,20.41721 3.07226,38.20898 v 49.72656 c 0,16.5118 -1.02429,29.18374 -3.07226,38.01563 v 4.22461 h 91.77344 l 3.45703,-20.35156 h -3.64844 c -9.72788,4.09594 -24.70399,6.14453 -44.92773,6.14453 -7.67991,0 -12.736,-0.12877 -15.16797,-0.38477 -0.76799,-7.6799 -1.15235,-16.19127 -1.15235,-25.53515 v -51.26563 c 0,-4.73594 0.25559,-11.64649 0.76758,-20.73437 0.63999,-9.08789 1.4087,-15.10487 2.30469,-18.04883 v -4.22461 z m 96.12305,0 v 4.22461 c 2.04797,7.6799 3.07226,20.41721 3.07226,38.20898 v 49.72656 c 0,16.5118 -1.02429,29.18374 -3.07226,38.01563 v 4.22461 h 91.77539 l 3.45703,-20.35156 h -3.64844 c -9.72788,4.09594 -24.70399,6.14453 -44.92773,6.14453 -7.67991,0 -12.736,-0.12877 -15.16797,-0.38477 -0.76799,-7.6799 -1.15235,-16.19127 -1.15235,-25.53515 v -51.26563 c 0,-4.73594 0.25559,-11.64649 0.76758,-20.73437 0.63999,-9.08789 1.4087,-15.10487 2.30469,-18.04883 v -4.22461 z m 441.37695,0 v 4.22461 c 2.04797,7.6799 3.07226,20.41721 3.07226,38.20898 v 47.80664 c 0,18.94376 -1.02429,32.25565 -3.07226,39.93555 v 4.22461 h 33.4082 v -4.22461 c -2.04797,-7.6799 -3.07226,-20.99179 -3.07226,-39.93555 v -45.88672 c 0,-4.99193 0.25558,-12.16197 0.76758,-21.50586 0.63999,-9.47188 1.40869,-15.67908 2.30468,-18.62304 v -4.22461 z m 38.2793,0 -0.002,0.004 h 0.002 z m 0,0.004 v 4.22071 c 2.04797,6.91191 3.07226,19.9048 3.07226,38.97656 v 38.01563 c 0,19.32775 4.47811,33.40834 13.4375,42.24023 8.95989,8.70389 23.48824,13.05469 43.58399,13.05469 20.09574,0 34.36656,-4.47997 42.81445,-13.43946 8.57589,-9.08788 12.86328,-25.27851 12.86328,-48.57422 v -34.36718 c 0,-4.60794 0.25754,-11.00928 0.76953,-19.20117 0.63999,-8.3199 1.40675,-13.95057 2.30274,-16.89454 v -4.0332 h -27.45508 v 4.22461 c 2.04797,10.36787 3.07226,25.98392 3.07226,46.84766 0,20.73574 -0.44766,35.45431 -1.34375,44.1582 -0.89598,8.70389 -3.00798,15.55298 -6.33593,20.54492 -5.24794,3.32796 -13.31155,4.99219 -24.19141,4.99219 -10.75186,0 -18.75207,-2.8807 -24,-8.64063 -2.30397,-2.43196 -4.28719,-6.39871 -5.95117,-11.90234 -1.53598,-5.50393 -2.30469,-14.7206 -2.30469,-27.64844 v -23.61523 c 0,-18.30377 0.89552,-33.21452 2.6875,-44.73438 v -4.22461 z m -731.99414,151.375 V 550.8457 H 260.43555 V 373.70898 Z m 9.92187,14.70704 c 9.67098,0.28459 15.29049,0.42578 16.85547,0.42578 l 35.625,-0.42578 c 20.05275,0 35.27243,3.12909 45.6543,9.38671 10.52386,6.25773 15.78515,17.13587 15.78515,32.63868 0,15.3598 -6.11445,27.44969 -18.3457,36.26757 -12.23085,8.67539 -27.7331,13.01368 -46.50586,13.01368 -5.11994,0 -10.1715,-0.49863 -15.14844,-1.49414 v 27.94531 c -1e-5,10.52387 1.42312,19.483 4.26758,26.8789 v 4.69336 h -38.82422 v -4.69336 c 2.84437,-8.10649 4.26367,-18.05943 4.26367,-29.86328 v -76.58789 c 0,-14.22182 -1.20918,-25.38629 -3.62695,-33.49218 z m 205.04688,11.03515 -29.56641,2.87891 c -0.51199,4.22394 -2.30499,11.13449 -5.37695,20.73437 -3.07197,9.47188 -9.53435,28.92951 -19.39063,58.36914 -9.85627,29.43963 -18.11361,46.46042 -24.76953,51.06836 v 4.22461 h 32.25586 v -4.22461 c 0,-6.01592 0.38439,-10.68766 1.15234,-14.01562 0.76799,-3.45596 3.26434,-12.4785 7.48828,-27.07031 5.24794,-0.128 12.15849,-0.19141 20.73438,-0.19141 8.57589,0 15.29622,0.0634 20.16016,0.19141 8.06389,22.01572 12.0957,35.71 12.0957,41.08593 v 4.22461 h 40.70312 v -4.22461 c -3.71195,-2.94396 -7.03846,-6.90885 -9.98242,-11.90039 -6.14392,-9.85587 -17.08823,-36.28941 -32.83203,-79.29687 -8.44789,-23.03971 -12.67187,-36.98958 -12.67187,-41.85352 z m -152.77735,2.83008 v 0.002 c -10.23987,0 -16.21294,0.0708 -17.91992,0.21289 -0.28444,4.26655 -0.42774,16.0684 -0.42773,35.41016 v 27.30664 c 4.55104,1.27998 9.52886,1.91992 14.93359,1.91992 10.80886,0 18.98727,-3.05635 24.5332,-9.17187 5.68883,-6.11553 8.53321,-14.57786 8.53321,-25.38672 0,-10.80886 -2.34573,-18.56097 -7.03907,-23.25391 -4.69324,-4.69324 -12.23141,-7.03906 -22.61328,-7.03906 z m 211.54883,0.0488 v 4.22461 c 2.17597,7.29591 3.26367,17.34469 3.26367,30.14453 V 505.625 c 0,11.26386 -1.27987,20.22299 -3.83984,26.87891 v 4.22461 h 34.17578 v -4.22461 c -2.04797,-6.65592 -3.07227,-16.25499 -3.07227,-28.79883 v -26.6875 c 0.64,0.128 1.72769,0.1914 3.26368,0.1914 l 34.56054,42.04883 c 7.03991,8.95989 11.45607,14.78274 13.24805,17.47071 h 33.59961 v -4.60743 c -4.09595,-1.27998 -8.70253,-3.9685 -13.82227,-8.06445 -4.99193,-4.09595 -12.16002,-11.58303 -21.5039,-22.46289 l -21.88868,-25.53711 c 12.15985,-1.15198 21.88769,-5.31111 29.1836,-12.47852 7.29591,-7.1679 10.94336,-16.64016 10.94336,-28.41601 0,-11.90385 -4.54473,-20.35181 -13.63281,-25.34375 -8.95989,-4.99194 -21.69329,-7.48828 -38.20508,-7.48828 l -27.45703,0.38476 c -8.95989,0 -15.23246,-0.12877 -18.81641,-0.38476 z m 119.16797,0 v 4.22461 c 1.91997,7.29591 2.88086,20.15807 2.88086,38.58984 v 48.76758 c 0,18.43177 -0.96085,31.29589 -2.88086,38.5918 v 4.22461 h 32.83203 v -4.22461 c -0.63999,-2.94397 -1.27993,-8.89413 -1.91992,-17.85352 -0.512,-8.95989 -0.76758,-15.68021 -0.76758,-20.16016 v -18.43164 c 25.21568,32.1276 41.53508,52.35003 48.95898,60.66993 h 37.24805 v -4.22461 c -11.00786,-2.81597 -25.66498,-15.4206 -43.96875,-37.82032 l -26.10937,-31.87304 30.52539,-37.24805 c 9.85587,-11.64785 18.30384,-17.98383 25.34375,-19.00781 v -4.22461 h -31.8711 c 0,5.37593 -4.15912,13.05714 -12.47851,23.04101 l -27.64844,33.02344 v -13.63086 c 0,-4.60794 0.25558,-11.39363 0.76758,-20.35351 0.63999,-8.95989 1.27993,-14.91151 1.91992,-17.85547 v -4.22461 z m -73.66992,12.47851 c 8.31989,0 14.40028,1.72764 18.24023,5.1836 3.96795,3.32796 5.95313,9.4733 5.95313,18.43359 0,8.96029 -2.17736,15.74362 -6.5293,20.35156 -4.22395,4.47995 -11.45544,6.71875 -21.69531,6.71875 -4.35195,0 -7.99785,-0.19217 -10.94141,-0.57617 0,-29.43963 0.12682,-46.07802 0.38281,-49.91797 1.53598,-0.128 6.3997,-0.1914 14.5918,-0.1914 z m -122.88868,11.71289 c 5.88793,15.23181 10.49627,28.54369 13.82422,39.93555 1.53598,5.11994 2.68709,8.76779 3.45508,10.94336 h -33.21484 c 6.39992,-21.75973 11.7116,-38.71906 15.93554,-50.87891 z"
     id="path8504" />
</svg>
