<?xml version="1.0" encoding="UTF-8"?>
<svg width="270mm" height="150mm" version="1.1" viewBox="0 0 270 150" xmlns="http://www.w3.org/2000/svg" xmlns:cc="http://creativecommons.org/ns#" xmlns:dc="http://purl.org/dc/elements/1.1/" xmlns:rdf="http://www.w3.org/1999/02/22-rdf-syntax-ns#">
 <metadata>
  <rdf:RDF>
   <cc:Work rdf:about="">
    <dc:format>image/svg+xml</dc:format>
    <dc:type rdf:resource="http://purl.org/dc/dcmitype/StillImage"/>
    <dc:title/>
   </cc:Work>
  </rdf:RDF>
 </metadata>
 <path transform="scale(.26458)" d="m20 11.428v177.14h135.71v-177.14h-135.71zm12.711 12.572c3.9822 0.28444 9.6002 0.42578 16.854 0.42578l36.48-0.42578c16.782 0 29.583 2.2751 38.4 6.8262 8.8178 4.5511 13.227 12.515 13.227 23.893 0 7.68-1.9904 14.295-5.9727 19.842-3.84 5.5467-8.6767 9.7415-14.508 12.586 6.9689 1.7067 13.582 5.1909 19.84 10.453 7.5378 6.2578 11.307 15.289 11.307 27.094 0 11.662-2.915 21.12-8.7461 28.373-5.8311 7.2533-13.298 12.516-22.4 15.787-8.96 3.2711-20.267 4.9062-33.92 4.9062-22.187-0.5689-33.564-0.85352-34.133-0.85352l-17.066 0.42578v-4.9062c2.8444-6.9689 4.2656-16.925 4.2656-29.867v-77.865c0-13.938-1.2092-24.604-3.627-32v-4.6934zm615.27 11.479-32.832 3.457c-1.024 5.632-4.289 17.472-9.793 35.52s-13.504 41.6-24 70.656c-15.872-40.704-25.921-67.521-30.145-80.449-4.096-12.928-6.7825-22.463-8.0625-28.607l-31.682 2.4961v4.2246c0.512 6.272 0.76953 14.528 0.76953 24.768 0 38.528-2.4329 72.319-7.2969 101.38v4.2246h26.305v-4.2246c-0.384-10.112-0.57617-22.591-0.57617-37.439 0-14.976 0.70333-33.728 2.1113-56.256 22.912 60.544 34.369 93.824 34.369 99.84l23.23-2.3027c5.888-20.352 16.705-52.544 32.449-96.576 2.304 20.992 3.4551 43.391 3.4551 67.199 0 9.472-0.19218 17.983-0.57618 25.535v4.2246h31.68v-4.2246c-3.456-24.064-5.9503-46.848-7.4863-68.352-1.408-21.632-2.1133-36.479-2.1133-44.543 0-8.192 0.06536-13.632 0.19336-16.32v-4.2246zm90.479 0.38476-29.566 2.8789c-0.512 4.224-2.305 11.136-5.377 20.736-3.072 9.472-9.5366 28.929-19.393 58.369-9.856 29.44-18.112 46.462-24.768 51.07v4.2246h32.256v-4.2246c0-6.016 0.38435-10.688 1.1524-14.016 0.768-3.456 3.2643-12.48 7.4883-27.072 5.248-0.128 12.16-0.19141 20.736-0.19141 8.576 0 15.296 0.06341 20.16 0.19141 8.064 22.016 12.096 35.712 12.096 41.088v4.2246h40.703v-4.2246c-3.712-2.944-7.0404-6.9104-9.9844-11.902-6.144-9.856-17.088-36.289-32.832-79.297-8.448-23.04-12.672-36.991-12.672-41.855zm88.191 0.95898-30.336 2.1133v4.2227c1.664 9.728 2.4961 24.129 2.4961 43.201v38.975c0 21.376-1.0243 35.904-3.0723 43.584v4.2246h26.305v-4.2246c-2.432-9.216-3.6484-21.888-3.6484-38.016v-58.367l73.344 102.72 25.152-2.4941c-0.512-1.92-1.1519-7.2969-1.9199-16.129s-1.1524-16.961-1.1524-24.385v-45.695c0-7.296 0.32094-15.552 0.96094-24.768 0.64-9.344 1.3433-15.616 2.1113-18.816v-4.2246h-27.072v4.2246c1.152 3.2 2.1763 8.7671 3.0723 16.703 0.896 7.808 1.3438 14.978 1.3438 21.506v50.494l-67.584-94.848zm-742.73 0.4043c-7.68 0-13.369 0.21396-17.066 0.64063-0.14222 1.9911-0.21484 17.422-0.21484 46.293h14.508c18.204 0 27.307-7.8224 27.307-23.467 0-8.5333-2.1337-14.577-6.4004-18.133-4.2667-3.5556-10.311-5.334-18.133-5.334zm164.39 0.93945-89.279 0.57617v4.2246c2.176 9.216 3.2637 22.143 3.2637 38.783v48.576c0 16.512-1.0877 29.376-3.2637 38.592v4.2246h91.969l3.6484-20.352h-3.6484c-4.48 1.792-11.521 3.264-21.121 4.416s-17.856 1.7285-24.768 1.7285c-6.784 0-11.648-0.12877-14.592-0.38477-0.384-4.224-0.57618-17.088-0.57618-38.592v-10.176c2.304-0.256 8.1287-0.38476 17.473-0.38476 9.472 0 16.64 0.51311 21.504 1.5371h3.6484l6.7188-15.938-49.344 0.96094c0-22.912 0.12877-37.311 0.38477-43.199 2.944-0.256 7.0391-0.38477 12.287-0.38477 17.92 0 30.017 0.8955 36.289 2.6875h3.6465l5.7598-16.896zm0.98047 0c0.64 7.296 0.95898 13.824 0.95898 19.584h3.6484c14.976-3.328 27.263-5.1824 36.863-5.5664 0.512 6.528 0.76953 16.382 0.76953 29.566v50.113c0 17.024-0.89745 29.375-2.6894 37.055v4.2246h33.025v-4.2246c-2.048-7.68-3.0723-20.223-3.0723-37.631v-50.305c0-12.8 0.25557-22.399 0.76757-28.799 10.368 0.384 22.784 2.2384 37.248 5.5664h3.6484c0-5.76 0.31898-12.288 0.95898-19.584-24.96 0.384-43.646 0.57617-56.062 0.57617s-31.104-0.19217-56.064-0.57617zm247.39 0-89.279 0.57617v4.2246c2.176 9.216 3.2637 22.143 3.2637 38.783v48.576c0 16.512-1.0877 29.376-3.2637 38.592v4.2246h91.969l3.6484-20.352h-3.6484c-4.48 1.792-11.521 3.264-21.121 4.416s-17.856 1.7285-24.768 1.7285c-6.784 0-11.648-0.12877-14.592-0.38477-0.384-4.224-0.57618-17.088-0.57618-38.592v-10.176c2.304-0.256 8.1287-0.38476 17.473-0.38476 9.472 0 16.64 0.51311 21.504 1.5371h3.6484l6.7188-15.938-49.344 0.96094c0-22.912 0.12877-37.311 0.38477-43.199 2.944-0.256 7.0391-0.38477 12.287-0.38477 17.92 0 30.017 0.8955 36.289 2.6875h3.6465l5.7598-16.896zm-130.59 0.57617v4.2246c2.304 6.656 3.457 19.393 3.457 38.209v52.99c0 21.12-1.2164 36.288-3.6484 45.504-2.304 9.216-7.2966 17.089-14.977 23.617-4.224 3.456-7.808 6.2079-10.752 8.2559l10.176 9.2168 15.361-11.137c1.024-0.768 3.2628-2.561 6.7188-5.377s5.7601-4.9913 6.9121-6.5273c1.152-1.536 2.945-3.9035 5.377-7.1035 2.56-3.072 4.2876-6.0794 5.1836-9.0234 1.024-2.816 2.4326-6.9131 4.2246-12.289 1.792-5.504 2.6875-14.528 2.6875-27.072v-59.135c0-4.992 0.25558-12.16 0.76758-21.504 0.64-9.472 1.4087-15.681 2.3047-18.625v-4.2246h-33.793zm353.75 24.193c5.888 15.232 10.496 28.544 13.824 39.936 1.536 5.12 2.6871 8.7674 3.4551 10.943h-33.215c6.4-21.76 11.712-38.719 15.936-50.879zm-653.2 34.238c0 33.991 0.21396 54.4 0.64062 61.227 5.6889 0.85334 10.027 1.2793 13.014 1.2793 10.809 0 19.485-2.915 26.027-8.7461 6.6844-5.8311 10.025-13.653 10.025-23.467 0-20.196-14.08-30.293-42.24-30.293h-7.4668zm-24.631 95.396v177.14h194.43v-177.14h-194.43zm171.76 12.229v4.6934c-0.14222 2.9867-0.21289 9.0306-0.21289 18.133 0 8.96 0.78126 25.459 2.3457 49.494 1.7067 23.893 4.4803 49.21 8.3203 75.947v4.6934h-35.199v-4.6934c0.42667-8.3911 0.63867-17.849 0.63867-28.373 0-26.453-1.2798-51.344-3.8398-74.668-17.493 48.924-29.511 84.693-36.053 107.31l-25.812 2.5606c0-6.6844-12.73-43.663-38.187-110.93-1.5644 25.031-2.3457 45.866-2.3457 62.506 0 16.498 0.212 30.366 0.63867 41.602v4.6934h-29.227v-4.6934c5.4044-32.284 8.1074-69.832 8.1074-112.64 0-11.378-0.28464-20.551-0.85352-27.52v-4.6934l35.199-2.7734c1.4222 6.8267 4.4098 17.423 8.9609 31.787 4.6933 14.364 15.857 44.16 33.492 89.387 11.662-32.284 20.552-58.454 26.668-78.508s9.7411-33.209 10.879-39.467l36.48-3.8398zm780.82 14.271-32.832 3.457c-1.024 5.632-4.287 17.472-9.791 35.52-5.504 18.048-13.504 41.6-24 70.656-15.872-40.704-25.921-67.521-30.145-80.449-4.096-12.928-6.7845-22.463-8.0645-28.607l-31.68 2.4961v4.2246c0.512 6.272 0.76757 14.528 0.76757 24.768 0 38.528-2.4309 72.319-7.2949 101.38v4.2246h26.303v-4.2246c-0.384-10.112-0.57422-22.591-0.57422-37.439 0-14.976 0.70333-33.728 2.1113-56.256 22.912 60.544 34.367 93.824 34.367 99.84l23.232-2.3027c5.888-20.352 16.703-52.544 32.447-96.576 2.304 20.992 3.457 43.391 3.457 67.199 0 9.472-0.19217 17.983-0.57617 25.535v4.2246h31.68v-4.2246c-3.456-24.064-5.9522-46.848-7.4882-68.352-1.408-21.632-2.1113-36.479-2.1113-44.543 0-8.192 0.06341-13.632 0.1914-16.32v-4.2246zm-391.83 1.3438-30.336 2.1133v4.2227c1.664 9.728 2.4961 24.129 2.4961 43.201v38.975c0 21.376-1.0243 35.904-3.0723 43.584v4.2246h26.305v-4.2246c-2.432-9.216-3.6484-21.888-3.6484-38.016v-58.367l73.344 102.72 25.152-2.4941c-0.512-1.92-1.1519-7.2969-1.9199-16.129s-1.1523-16.961-1.1523-24.385v-45.695c0-7.296 0.31898-15.552 0.95898-24.768 0.64-9.344 1.3453-15.616 2.1133-18.816v-4.2246h-27.072v4.2246c1.152 3.2 2.1763 8.7671 3.0723 16.703 0.896 7.808 1.3438 14.978 1.3438 21.506v50.494l-67.584-94.848zm-37.596 1.3438-89.279 0.57617v4.2246c2.176 9.216 3.2637 22.143 3.2637 38.783v48.576c0 16.512-1.0877 29.376-3.2637 38.592v4.2246h91.967l3.6484-20.352h-3.6484c-4.48 1.792-11.519 3.264-21.119 4.416s-17.856 1.7285-24.768 1.7285c-6.784 0-11.648-0.12876-14.592-0.38476-0.384-4.224-0.57617-17.088-0.57617-38.592v-10.176c2.304-0.256 8.1267-0.38477 17.471-0.38477 9.472 0 16.64 0.51311 21.504 1.5371h3.6484l6.7207-15.938-49.344 0.96094c0-22.912 0.12681-37.311 0.38281-43.199 2.944-0.256 7.0411-0.38476 12.289-0.38476 17.92 0 30.015 0.8955 36.287 2.6875h3.6484l5.7598-16.896zm-320.53 0.57617v4.2246c2.048 7.68 3.0723 20.417 3.0723 38.209v47.807c0 18.944-1.0243 32.256-3.0723 39.936v4.2246h33.408v-4.2246c-2.048-7.68-3.0723-20.992-3.0723-39.936v-45.887c0-4.992 0.25558-12.162 0.76758-21.506 0.64-9.472 1.4087-15.679 2.3047-18.623v-4.2246h-33.408zm39 0v4.2246c2.048 7.68 3.0723 20.417 3.0723 38.209v49.727c0 16.512-1.0243 29.184-3.0723 38.016v4.2246h91.775l3.457-20.352h-3.6484c-9.728 4.096-24.704 6.1445-44.928 6.1445-7.68 0-12.736-0.12876-15.168-0.38476-0.768-7.68-1.1523-16.191-1.1523-25.535v-51.266c0-4.736 0.25558-11.646 0.76758-20.734 0.64-9.088 1.4087-15.105 2.3047-18.049v-4.2246h-33.408zm96.125 0v4.2246c2.048 7.68 3.0723 20.417 3.0723 38.209v49.727c0 16.512-1.0243 29.184-3.0723 38.016v4.2246h91.775l3.457-20.352h-3.6484c-9.728 4.096-24.704 6.1445-44.928 6.1445-7.68 0-12.736-0.12876-15.168-0.38476-0.768-7.68-1.1523-16.191-1.1523-25.535v-51.266c0-4.736 0.25558-11.646 0.76758-20.734 0.64-9.088 1.4087-15.105 2.3047-18.049v-4.2246h-33.408zm317.38 0v4.2246c2.048 7.68 3.0723 20.417 3.0723 38.209v47.807c0 18.944-1.0243 32.256-3.0723 39.936v4.2246h33.408v-4.2246c-2.048-7.68-3.0723-20.992-3.0723-39.936v-45.887c0-4.992 0.25558-12.162 0.76758-21.506 0.64-9.472 1.4087-15.679 2.3047-18.623v-4.2246h-33.408zm38.279 0v4.2246c2.048 6.912 3.0723 19.905 3.0723 38.977v38.016c0 19.328 4.4795 33.408 13.439 42.24 8.96 8.704 23.488 13.055 43.584 13.055s34.368-4.4794 42.816-13.439c8.576-9.088 12.863-25.28 12.863-48.576v-34.367c0-4.608 0.25753-11.009 0.76953-19.201 0.64-8.32 1.4067-13.951 2.3027-16.895v-4.0332h-27.455v4.2246c2.048 10.368 3.0723 25.984 3.0723 46.848 0 20.736-0.44775 35.456-1.3438 44.16s-3.0079 15.553-6.3359 20.545c-5.248 3.328-13.313 4.9922-24.193 4.9922-10.752 0-18.752-2.8806-24-8.6406-2.304-2.432-4.2872-6.4003-5.9512-11.904-1.536-5.504-2.3047-14.72-2.3047-27.648v-23.615c0-18.304 0.8955-33.216 2.6875-44.736v-4.2246h-33.023zm-608 151.38v177.14h133.02v-177.14h-133.02zm9.9219 14.707c9.6711 0.2846 15.289 0.42578 16.854 0.42578l35.627-0.42578c20.053 0 35.272 3.129 45.654 9.3867 10.524 6.2578 15.785 17.136 15.785 32.639 0 15.36-6.1146 27.45-18.346 36.268-12.231 8.6755-27.733 13.014-46.506 13.014-5.12 0-10.171-0.49857-15.148-1.4941v27.947c-1e-5 10.524 1.4231 19.483 4.2676 26.879v4.6934h-38.826v-4.6934c2.8444-8.1066 4.2656-18.061 4.2656-29.865v-76.588c0-14.222-1.2092-25.386-3.627-33.492v-4.6934zm205.05 11.035-29.568 2.8789c-0.512 4.224-2.305 11.136-5.377 20.736-3.072 9.472-9.5346 28.929-19.391 58.369s-18.114 46.462-24.77 51.07v4.2246h32.256v-4.2246c0-6.016 0.38434-10.688 1.1523-14.016 0.768-3.456 3.2643-12.48 7.4883-27.072 5.248-0.128 12.16-0.19141 20.736-0.19141s15.296 0.06341 20.16 0.19141c8.064 22.016 12.096 35.712 12.096 41.088v4.2246h40.703v-4.2246c-3.712-2.944-7.0384-6.9104-9.9824-11.902-6.144-9.856-17.088-36.289-32.832-79.297-8.448-23.04-12.672-36.991-12.672-41.855zm-152.78 2.832c-10.24 0-16.213 0.07078-17.92 0.21289-0.28444 4.2666-0.42774 16.07-0.42773 35.412v27.307c4.5511 1.28 9.5292 1.9199 14.934 1.9199 10.809 0 18.987-3.0563 24.533-9.1719 5.6889-6.1156 8.5332-14.578 8.5332-25.387s-2.3457-18.561-7.0391-23.254c-4.6933-4.6933-12.231-7.0391-22.613-7.0391zm211.55 0.04687v4.2246c2.176 7.296 3.2637 17.345 3.2637 30.145v68.928c0 11.264-1.2798 20.223-3.8398 26.879v4.2246h34.178v-4.2246c-2.048-6.656-3.0723-16.255-3.0723-28.799v-26.688c0.64 0.128 1.7277 0.1914 3.2637 0.1914l34.561 42.049c7.04 8.96 11.456 14.783 13.248 17.471h33.6v-4.6074c-4.096-1.28-8.7042-3.9684-13.824-8.0644-4.992-4.096-12.16-11.583-21.504-22.463l-21.889-25.537c12.16-1.152 21.888-5.3125 29.184-12.48 7.296-7.168 10.945-16.64 10.945-28.416 0-11.904-4.5448-20.352-13.633-25.344-8.96-4.992-21.695-7.4883-38.207-7.4883l-27.457 0.38477c-8.96 0-15.232-0.12877-18.816-0.38477zm119.17 0v4.2246c1.92 7.296 2.8809 20.16 2.8809 38.592v48.768c0 18.432-0.96086 31.296-2.8809 38.592v4.2246h32.832v-4.2246c-0.64-2.944-1.2799-8.8955-1.9199-17.855-0.512-8.96-0.76758-15.68-0.76758-20.16v-18.432c25.216 32.128 41.537 52.352 48.961 60.672h37.248v-4.2246c-11.008-2.816-25.665-15.422-43.969-37.822l-26.111-31.873 30.527-37.248c9.856-11.648 18.304-17.984 25.344-19.008v-4.2246h-31.871c0 5.376-4.1605 13.057-12.48 23.041l-27.648 33.023v-13.631c0-4.608 0.25558-11.394 0.76758-20.354 0.64-8.96 1.2799-14.911 1.9199-17.855v-4.2246h-32.832zm-73.67 12.48c8.32 0 14.4 1.7276 18.24 5.1836 3.968 3.328 5.9531 9.4736 5.9531 18.434s-2.1773 15.744-6.5293 20.352c-4.224 4.48-11.455 6.7188-21.695 6.7188-4.352 0-7.9994-0.19217-10.943-0.57617 0-29.44 0.12681-46.08 0.38281-49.92 1.536-0.128 6.3998-0.19141 14.592-0.19141zm-122.89 11.713c5.888 15.232 10.496 28.544 13.824 39.936 1.536 5.12 2.6871 8.7674 3.4551 10.943h-33.215c6.4-21.76 11.712-38.719 15.936-50.879z" fill="#8f68a2" stroke-miterlimit=".8" stroke-width="6.0606"/>
</svg>
